<svg width="114" height="76" viewBox="0 0 114 76" fill="none" xmlns="http://www.w3.org/2000/svg">
<path d="M7.424 38.64C6.10133 38.64 4.84267 38.2773 3.648 37.552C2.45333 36.784 1.55733 35.632 0.96 34.096C0.746667 33.5413 0.597333 32.9653 0.512 32.368C0.426667 31.728 0.384 31.1093 0.384 30.512C0.384 29.9147 0.490667 29.616 0.704 29.616C0.96 29.616 1.088 29.7867 1.088 30.128C1.088 32.1333 1.57867 33.648 2.56 34.672C3.584 35.696 4.84267 36.208 6.336 36.208C7.82933 36.208 9.25867 35.7813 10.624 34.928C12.032 34.0747 13.3333 32.9867 14.528 31.664C16.4907 29.5307 18.1547 27.376 19.52 25.2C20.8853 22.9813 22.1227 20.72 23.232 18.416C24.384 16.0693 25.536 13.6373 26.688 11.12C27.4133 9.584 28.3093 8.24 29.376 7.088C30.4853 5.936 31.808 5.14666 33.344 4.72L33.408 4.656H29.888C28.3947 4.656 26.816 4.72 25.152 4.848C23.488 4.976 21.9733 5.25333 20.608 5.68C19.2853 6.10667 18.3253 6.74666 17.728 7.6C17.344 8.15467 17.152 8.79467 17.152 9.52C17.152 10.2453 17.344 10.9493 17.728 11.632C18.112 12.3147 18.6027 12.8053 19.2 13.104C19.2853 13.1893 19.328 13.2533 19.328 13.296C19.328 13.3813 19.2213 13.488 19.008 13.616C18.8373 13.7013 18.6453 13.7227 18.432 13.68C18.0907 13.4667 17.664 13.1253 17.152 12.656C16.64 12.144 16.1707 11.6107 15.744 11.056C15.36 10.5013 15.104 10.032 14.976 9.648C14.8053 9.136 14.72 8.624 14.72 8.112C14.72 7.088 15.0827 6.256 15.808 5.616C16.576 4.976 17.5573 4.48533 18.752 4.144C19.9467 3.80267 21.2267 3.568 22.592 3.44C24 3.26933 25.344 3.184 26.624 3.184C27.9467 3.14133 29.0773 3.12 30.016 3.12H36.928C37.0133 3.12 37.056 3.14133 37.056 3.184C37.056 3.312 36.9067 3.504 36.608 3.76C36.352 3.97333 36.1813 4.08 36.096 4.08C35.0293 4.29333 34.24 4.86933 33.728 5.808C33.216 6.704 32.9813 8.15466 33.024 10.16C33.024 10.16 33.024 10.6293 33.024 11.568C33.0667 12.5067 33.1093 13.7227 33.152 15.216C33.1947 16.7093 33.2373 18.3093 33.28 20.016C33.3227 21.7227 33.3653 23.3653 33.408 24.944C33.4507 26.5227 33.4933 27.8453 33.536 28.912V29.296L55.744 5.872C57.152 4.37867 58.5387 3.12 59.904 2.096C61.312 1.02933 62.7627 0.559999 64.256 0.688C64.2987 0.688 64.32 0.709333 64.32 0.751999C64.3627 0.751999 64.384 0.751999 64.384 0.751999C64.384 0.879997 64.2987 1.02933 64.128 1.2C63.9573 1.37066 63.7653 1.47733 63.552 1.52C62.4427 1.47733 61.44 1.904 60.544 2.8C59.648 3.696 58.816 4.76266 58.048 6C57.664 6.64 57.088 7.664 56.32 9.072C55.552 10.4373 54.6773 12.0587 53.696 13.936C52.7573 15.8133 51.7973 17.7973 50.816 19.888C49.8347 21.9787 48.9173 24.0267 48.064 26.032C47.2533 28.0373 46.592 29.872 46.08 31.536C45.568 33.1573 45.312 34.48 45.312 35.504C45.312 36.6987 45.7173 37.296 46.528 37.296C46.8693 37.296 47.232 37.2107 47.616 37.04C48.1707 36.8267 48.7893 36.5067 49.472 36.08C50.1547 35.6533 50.7733 35.1627 51.328 34.608C52.4373 33.5413 53.4187 32.4533 54.272 31.344C55.1253 30.192 55.6373 29.5307 55.808 29.36C55.936 29.1893 56.0427 29.104 56.128 29.104C56.2987 29.104 56.384 29.232 56.384 29.488C56.384 29.744 56.2987 29.9787 56.128 30.192C55.7867 30.6187 55.2107 31.3653 54.4 32.432C53.5893 33.456 52.6293 34.5013 51.52 35.568C50.4533 36.6347 49.3013 37.4453 48.064 38C47.68 38.1707 47.2747 38.2987 46.848 38.384C46.4213 38.512 45.9947 38.576 45.568 38.576C44.6293 38.576 43.776 38.2987 43.008 37.744C42.2827 37.1467 41.92 36.1653 41.92 34.8C41.92 33.4773 42.2187 31.984 42.816 30.32C43.456 28.6133 44.16 26.9707 44.928 25.392C45.7387 23.7707 46.4 22.4053 46.912 21.296C47.4667 20.144 48.1707 18.672 49.024 16.88C49.8773 15.088 50.8587 13.2747 51.968 11.44L33.536 30.896C33.4933 31.2373 33.344 31.5787 33.088 31.92C32.832 32.2187 32.4267 32.4747 31.872 32.688C31.5733 32.816 31.168 33.1573 30.656 33.712C30.144 34.2667 29.8027 34.6507 29.632 34.864C29.632 34.9067 29.568 34.928 29.44 34.928C29.312 34.928 29.184 34.8853 29.056 34.8C28.928 34.7147 28.8853 34.6507 28.928 34.608C30.0373 33.2 30.6133 31.2587 30.656 28.784L30.72 27.248C30.8053 25.456 30.8693 23.5787 30.912 21.616C30.9547 19.6107 30.976 17.7547 30.976 16.048C31.0187 14.2987 31.04 12.8907 31.04 11.824C31.04 10.7147 31.04 10.16 31.04 10.16C31.04 9.136 31.1893 8.24 31.488 7.472C31.7867 6.704 32.1493 6.04266 32.576 5.488C31.8507 6.04266 31.1467 6.704 30.464 7.472C29.7813 8.24 29.2053 9.09333 28.736 10.032C28.096 11.3547 27.3707 13.0613 26.56 15.152C25.7493 17.2427 24.8107 19.4613 23.744 21.808C22.72 24.1547 21.568 26.4587 20.288 28.72C19.0507 30.9387 17.664 32.8587 16.128 34.48C15.0613 35.632 13.696 36.6133 12.032 37.424C10.4107 38.2347 8.87467 38.64 7.424 38.64Z" fill="black"/>
<path d="M57.872 58.856C55.6107 58.856 53.4347 58.5147 51.344 57.832C49.296 57.192 47.632 56.104 46.352 54.568C45.072 53.032 44.432 50.9627 44.432 48.36C44.432 45.5867 44.9653 42.8773 46.032 40.232C47.0987 37.5867 48.528 35.1333 50.32 32.872C52.112 30.568 54.1173 28.584 56.336 26.92C58.2987 25.4267 60.56 24.2107 63.12 23.272C65.7227 22.3333 68.304 21.864 70.864 21.864C71.9307 21.864 72.9333 21.9493 73.872 22.12C74.8107 22.248 75.7707 22.5467 76.752 23.016C77.6053 23.4 78.288 23.8907 78.8 24.488C79.312 25.0427 79.568 25.6827 79.568 26.408C79.568 26.4933 79.568 26.6 79.568 26.728C79.568 26.856 79.5467 26.9627 79.504 27.048C79.3333 27.7307 78.928 28.52 78.288 29.416C77.6907 30.2693 77.2213 31.1653 76.88 32.104C76.8373 32.2747 76.6027 32.424 76.176 32.552C75.7493 32.6373 75.5787 32.5947 75.664 32.424C76.0053 31.8693 76.2613 31.1867 76.432 30.376C76.6453 29.5653 76.752 28.7547 76.752 27.944C76.752 27.3467 76.688 26.792 76.56 26.28C76.4747 25.7253 76.304 25.256 76.048 24.872C75.6213 24.104 74.96 23.5707 74.064 23.272C73.168 22.9733 72.208 22.824 71.184 22.824C70.2027 22.824 69.2213 22.9307 68.24 23.144C67.2587 23.3573 66.4053 23.592 65.68 23.848C63.2053 24.744 60.8373 26.152 58.576 28.072C56.5707 29.8213 54.7787 31.848 53.2 34.152C51.664 36.456 50.448 38.824 49.552 41.256C48.656 43.688 48.208 46.0133 48.208 48.232C48.208 50.4933 48.6987 52.2853 49.68 53.608C50.6613 54.9307 51.9413 55.8693 53.52 56.424C55.0987 56.9787 56.8053 57.256 58.64 57.256C60.2613 57.256 61.8613 57.0853 63.44 56.744C65.0613 56.4027 66.5333 55.976 67.856 55.464C70.1173 54.6107 72.144 53.5653 73.936 52.328C75.7707 51.0907 77.4773 49.4907 79.056 47.528C79.2693 47.3147 79.4187 47.208 79.504 47.208C79.632 47.208 79.696 47.2933 79.696 47.464C79.696 47.8053 79.5253 48.2107 79.184 48.68C77.7333 50.6427 76.0907 52.2853 74.256 53.608C72.4213 54.9307 70.4587 56.0187 68.368 56.872C66.96 57.4267 65.3173 57.896 63.44 58.28C61.6053 58.664 59.7493 58.856 57.872 58.856Z" fill="black"/>
</svg>
