<svg xmlns="http://www.w3.org/2000/svg" viewBox="0 0 96.65 66.04"><defs><pattern id="Point_mezzo-tinto" data-name="Point mezzo-tinto" width="91.13" height="91.12" patternUnits="userSpaceOnUse" viewBox="0 0 91.13 91.13"><path fill="none" d="M0 0h91.13v91.12H0z"/><path class="cls-2" d="M79.1 93.77a1.67 1.67 0 01-1.19-.5 1.66 1.66 0 01-.5-1.19 1.7 1.7 0 01.5-1.2 1.76 1.76 0 012.38 0 1.7 1.7 0 01.5 1.2 1.67 1.67 0 01-.5 1.19 1.7 1.7 0 01-1.19.5zm-33.6.67a1.69 1.69 0 01-1.69-1.69 1.67 1.67 0 01.5-1.19 1.73 1.73 0 012.38 0 1.69 1.69 0 01-1.19 2.88zm47.21-77.88a1.68 1.68 0 01-1.19-2.88 1.75 1.75 0 012.39 0 1.71 1.71 0 01.49 1.19 1.67 1.67 0 01-.5 1.19 1.66 1.66 0 01-1.19.5zm-.63 26.26a1.69 1.69 0 01-1.19-.49 1.71 1.71 0 01-.5-1.2 1.67 1.67 0 01.5-1.19 1.73 1.73 0 012.38 0 1.69 1.69 0 01-1.19 2.88zm-.57 12.68a.88.88 0 01-.63-.26.88.88 0 010-1.23.9.9 0 011.24 0 .83.83 0 01.26.61.85.85 0 01-.26.62.87.87 0 01-.61.26zM57.27 88a2.53 2.53 0 01-1.79-4.32 2.62 2.62 0 013.58 0A2.53 2.53 0 0157.27 88zM24.25 76.91a2.51 2.51 0 01-1.79-.75 2.53 2.53 0 010-3.58 2.62 2.62 0 013.58 0 2.53 2.53 0 010 3.58 2.51 2.51 0 01-1.79.75zm47.89.61a2.53 2.53 0 01-1.79-4.32 2.61 2.61 0 013.58 0 2.54 2.54 0 01.74 1.8 2.53 2.53 0 01-2.53 2.53zM75 50.94a2.53 2.53 0 01-1.79-4.32 2.62 2.62 0 013.58 0A2.53 2.53 0 0175 50.94zM57.9 34.49a2.51 2.51 0 01-1.79-.75 2.52 2.52 0 010-3.57 2.61 2.61 0 013.58 0 2.52 2.52 0 010 3.57 2.51 2.51 0 01-1.79.75zm-44.3 4.74a2.58 2.58 0 01-1.79-.74 2.54 2.54 0 01-.74-1.79 2.58 2.58 0 01.74-1.79 2.62 2.62 0 013.58 0 2.51 2.51 0 010 3.58 2.54 2.54 0 01-1.79.74zM18.35 57A2 2 0 0117 53.66a2 2 0 012.78 0A2 2 0 0118.35 57zm14.56-6.62a2 2 0 01-1.4-3.38 2 2 0 012.79 0 2 2 0 01-1.39 3.36zM23.1 22.15a2.54 2.54 0 01-2.54-2.53 2.51 2.51 0 01.75-1.79 2.6 2.6 0 013.58 0 2.53 2.53 0 010 3.58 2.58 2.58 0 01-1.79.74zM32 36.14a2 2 0 01-1.4-3.36 2.05 2.05 0 012.79 0A2 2 0 0132 36.14zm16.73 29.04a2.53 2.53 0 01-1.79-4.32 2.6 2.6 0 013.58 0 2.53 2.53 0 010 3.58 2.58 2.58 0 01-1.79.74zm9.17-14.24a2.53 2.53 0 01-1.79-4.32 2.62 2.62 0 013.58 0 2.53 2.53 0 01-1.79 4.32zM48.5 28.9a2.53 2.53 0 01-1.79-4.32 2.62 2.62 0 013.58 0 2.53 2.53 0 01-1.79 4.32zm-13.7-4.22a2.53 2.53 0 01-2.53-2.53 2.54 2.54 0 01.73-1.79 2.6 2.6 0 013.58 0 2.53 2.53 0 01-1.79 4.32zm1.27-13.29a2.53 2.53 0 01-1.79-4.32 2.62 2.62 0 013.58 0 2.53 2.53 0 01-1.79 4.32zm21.51-3.48a2.53 2.53 0 01-1.79-4.32 2.62 2.62 0 013.58 0 2.53 2.53 0 01-1.79 4.32zm-3.16 10.76a2.53 2.53 0 01-1.79-4.32 2.61 2.61 0 013.58 0 2.54 2.54 0 01-1.79 4.33zm26.26-8.86a2.53 2.53 0 01-1.79-4.32 2.62 2.62 0 013.58 0 2.51 2.51 0 01.75 1.79 2.54 2.54 0 01-2.54 2.53zM68.66 22.78a2.53 2.53 0 01-1.79-4.32 2.61 2.61 0 013.58 0 2.53 2.53 0 01-1.79 4.32zm10.76 10.44a2.53 2.53 0 01-1.79-4.32 2.62 2.62 0 013.58 0 2.53 2.53 0 01-1.79 4.32zm5.06 31.96a2.53 2.53 0 01-1.79-4.32 2.6 2.6 0 013.58 0 2.54 2.54 0 01.73 1.79 2.53 2.53 0 01-2.53 2.53zm-18.67-.95A2.53 2.53 0 0164 59.91a2.61 2.61 0 013.58 0 2.53 2.53 0 01-1.79 4.32zM38.28 85.11a2.58 2.58 0 01-1.79-.74 2.53 2.53 0 010-3.58 2.62 2.62 0 013.58 0 2.53 2.53 0 01-1.79 4.32zM37.65 62a2.53 2.53 0 01-1.79-4.32 2.62 2.62 0 013.58 0 2.58 2.58 0 01.74 1.79A2.53 2.53 0 0137.65 62zm-26.26 7.92a2.53 2.53 0 01-2.53-2.53 2.58 2.58 0 01.74-1.79 2.62 2.62 0 013.58 0 2.58 2.58 0 01.74 1.79 2.53 2.53 0 01-2.53 2.53zM9.17 53.29a1.43 1.43 0 01-1-.4 1.41 1.41 0 112.4-1 1.41 1.41 0 01-.41 1 1.39 1.39 0 01-.99.4zM4.74 31A2.52 2.52 0 013 26.69a2.6 2.6 0 013.57 0A2.54 2.54 0 014.74 31zm.95-20.24a2.54 2.54 0 01-2.53-2.54 2.58 2.58 0 01.74-1.79 2.62 2.62 0 013.58 0 2.58 2.58 0 01.74 1.79A2.54 2.54 0 017.48 10a2.51 2.51 0 01-1.79.76zM13 19.93a2.53 2.53 0 01-1.79-4.32 2.62 2.62 0 013.58 0A2.53 2.53 0 0113 19.93zM9.49 84.16a2.53 2.53 0 01-1.79-4.32 2.62 2.62 0 013.58 0 2.53 2.53 0 01-1.79 4.32zm16.14 4.75a2.53 2.53 0 01-1.79-4.32 2.6 2.6 0 013.58 0 2.53 2.53 0 01-1.79 4.32zm7.62-15.5a2.54 2.54 0 01-1.79-4.33 2.62 2.62 0 013.58 0 2.54 2.54 0 01-1.79 4.33zm-8.89-28.8a2.53 2.53 0 01-1.79-4.32 2.62 2.62 0 013.58 0 2.53 2.53 0 01-1.79 4.32zM22.78 31a2.51 2.51 0 01-1.78-.74 2.54 2.54 0 01-.74-1.78 2.59 2.59 0 01.74-1.8 2.62 2.62 0 013.58 0 2.59 2.59 0 01.74 1.8 2.54 2.54 0 01-.74 1.78 2.51 2.51 0 01-1.8.74zM69 39.87a2.55 2.55 0 01-1.79-.75 2.51 2.51 0 01-.75-1.79 2.55 2.55 0 01.75-1.79 2.61 2.61 0 013.57 0 2.55 2.55 0 01.75 1.79A2.56 2.56 0 0169 39.87zm15.8 46.82A2.54 2.54 0 0183 86a2.5 2.5 0 01-.74-1.79 2.54 2.54 0 01.74-1.84 2.61 2.61 0 013.57 0 2.52 2.52 0 010 3.58 2.58 2.58 0 01-1.77.74zM50.94 75.3a2.53 2.53 0 01-1.79-4.3 2.62 2.62 0 013.58 0 2.53 2.53 0 01-1.79 4.32zM21.2 13.61a2.51 2.51 0 01-1.79-.75 2.54 2.54 0 01-.74-1.79 2.58 2.58 0 01.74-1.79 2.62 2.62 0 013.58 0 2.58 2.58 0 01.74 1.79 2.54 2.54 0 01-2.53 2.54zM2.53 21.2a2.54 2.54 0 01-1.79-.74A2.58 2.58 0 010 18.67a2.54 2.54 0 01.74-1.79 2.6 2.6 0 013.58 0 2.54 2.54 0 01.74 1.79 2.58 2.58 0 01-.74 1.79 2.54 2.54 0 01-1.79.74zm40.82-3.48a2.54 2.54 0 01-1.79-.72 2.53 2.53 0 010-3.58 2.6 2.6 0 013.57 0 2.51 2.51 0 01.75 1.79 2.53 2.53 0 01-2.53 2.53zm3.16-8.86a2.53 2.53 0 01-1.79-4.32 2.61 2.61 0 013.58 0 2.53 2.53 0 01-1.79 4.32zM30.69 3.62a1.41 1.41 0 01-1-.41 1.44 1.44 0 01-.42-1 1.43 1.43 0 01.41-1 1.44 1.44 0 012 0 1.39 1.39 0 010 2 1.41 1.41 0 01-.99.41zM69.93 6a2.54 2.54 0 01-1.79-.74 2.51 2.51 0 010-3.58 2.62 2.62 0 013.58 0 2.53 2.53 0 010 3.58 2.58 2.58 0 01-1.79.74zm-4.12 7.92A2.53 2.53 0 0164 9.6a2.62 2.62 0 013.58 0 2.53 2.53 0 01-1.79 4.32zm14.87 6.33a2.53 2.53 0 01-2.53-2.53 2.54 2.54 0 01.74-1.79 2.6 2.6 0 013.58 0 2.51 2.51 0 01.75 1.79 2.54 2.54 0 01-2.54 2.53zm1.58 22.46a2.53 2.53 0 01-1.79-4.32 2.62 2.62 0 013.58 0 2.53 2.53 0 01-1.79 4.32zM10.76 5.69a2.53 2.53 0 01-2.53-2.53A2.58 2.58 0 019 1.37a2.61 2.61 0 013.57 0 2.55 2.55 0 01.75 1.79A2.51 2.51 0 0112.54 5a2.54 2.54 0 01-1.78.69zm3.16 6.96a2.53 2.53 0 01-2.53-2.53 2.58 2.58 0 01.74-1.79 2.62 2.62 0 013.58 0 2.58 2.58 0 01.74 1.79 2.53 2.53 0 01-2.53 2.53zm14.24-3.48a2.53 2.53 0 01-1.79-4.32 2.62 2.62 0 013.58 0 2.53 2.53 0 01-1.79 4.32zm2.21 8.55a2.53 2.53 0 01-2.53-2.53 2.54 2.54 0 01.74-1.79 2.6 2.6 0 013.58 0 2.53 2.53 0 01-1.79 4.32zM41.45 5.38a2.54 2.54 0 01-1.79-.74 2.58 2.58 0 01-.74-1.79 2.54 2.54 0 01.74-1.79 2.6 2.6 0 013.58 0 2.53 2.53 0 010 3.58 2.56 2.56 0 01-1.79.74zm19.62 19.3a2.54 2.54 0 01-1.79-.74 2.51 2.51 0 010-3.58 2.6 2.6 0 013.58 0 2.53 2.53 0 01-1.79 4.32zM70.56 31a2.54 2.54 0 01-1.79-.74 2.55 2.55 0 010-3.59 2.62 2.62 0 013.58 0 2.58 2.58 0 01.74 1.79 2.54 2.54 0 01-.74 1.79 2.51 2.51 0 01-1.79.75z"/><path class="cls-2" d="M65.18 36.7a2.53 2.53 0 01-1.79-4.32 2.62 2.62 0 013.58 0 2.53 2.53 0 01-1.79 4.32zm-6.96 6.96a2.53 2.53 0 01-1.79-4.32 2.62 2.62 0 013.58 0 2.53 2.53 0 01-1.79 4.32zM50 39.87a2.53 2.53 0 01-1.79-4.32 2.61 2.61 0 013.58 0 2.57 2.57 0 01.74 1.8A2.54 2.54 0 0150 39.87zM39.75 27.91a2.51 2.51 0 01-1.75-.75 2.53 2.53 0 010-3.58 2.62 2.62 0 013.58 0 2.54 2.54 0 01-1.79 4.33zm1.38 11.64a2.53 2.53 0 01-1.79-4.32 2.61 2.61 0 013.58 0 2.53 2.53 0 01-1.79 4.32zM51 33.9a2.53 2.53 0 01-1.79-4.32 2.62 2.62 0 013.58 0A2.53 2.53 0 0151 33.9zm25.57 27.48a2.53 2.53 0 01-1.79-4.32 2.62 2.62 0 013.58 0 2.53 2.53 0 01-1.79 4.32zM67.4 48.09a2.53 2.53 0 01-1.8-4.32 2.62 2.62 0 013.58 0 2.53 2.53 0 01-1.78 4.32zm.94 7.28a2.53 2.53 0 01-1.79-4.32 2.61 2.61 0 013.58 0 2.53 2.53 0 01-1.79 4.32zM57 59.17a2.53 2.53 0 01-1.79-4.32 2.6 2.6 0 013.58 0 2.54 2.54 0 01.74 1.79 2.58 2.58 0 01-.74 1.79 2.54 2.54 0 01-1.79.74zM46.2 57a2.53 2.53 0 01-1.8-4.32 2.62 2.62 0 013.58 0 2.51 2.51 0 010 3.58 2.54 2.54 0 01-1.78.74zm-5.7-5.74a2.51 2.51 0 01-1.79-.75 2.52 2.52 0 010-3.57 2.6 2.6 0 013.58 0 2.54 2.54 0 01-1.79 4.32zm-5.7-11.08a2.58 2.58 0 01-1.8-.74 2.53 2.53 0 010-3.58 2.62 2.62 0 013.58 0 2.53 2.53 0 01-1.79 4.32zM52.53 54.1a2.53 2.53 0 01-1.8-4.32 2.62 2.62 0 013.58 0 2.58 2.58 0 01.74 1.79 2.53 2.53 0 01-2.52 2.53zm0-8.22a2.53 2.53 0 01-1.8-4.32 2.61 2.61 0 013.58 0 2.54 2.54 0 01.74 1.79 2.58 2.58 0 01-.74 1.79 2.54 2.54 0 01-1.78.74zM81 72.77a2.53 2.53 0 01-1.79-4.32 2.62 2.62 0 013.58 0A2.53 2.53 0 0181 72.77zm6 7.91a2.53 2.53 0 01-1.79-4.32 2.62 2.62 0 013.58 0A2.53 2.53 0 0187 80.68zM71.51 84.8a2.51 2.51 0 01-1.79-.75 2.54 2.54 0 01-.72-1.79 2.58 2.58 0 01.74-1.79 2.62 2.62 0 013.58 0 2.58 2.58 0 01.68 1.79 2.54 2.54 0 01-2.53 2.54zm8.22 4.11a2.53 2.53 0 01-2.53-2.53 2.54 2.54 0 01.74-1.79 2.62 2.62 0 013.58 0 2.55 2.55 0 01.75 1.79 2.59 2.59 0 01-.75 1.79 2.54 2.54 0 01-1.79.74zM79.1 81a2.53 2.53 0 01-1.79-4.32 2.62 2.62 0 013.58 0 2.54 2.54 0 01.74 1.79A2.53 2.53 0 0179.1 81zM57.58 66.76a2.53 2.53 0 01-1.79-4.32 2.62 2.62 0 013.58 0 2.53 2.53 0 01-1.79 4.32zM63.28 81a2.53 2.53 0 01-1.79-4.32 2.62 2.62 0 013.58 0 2.54 2.54 0 01.74 1.79 2.58 2.58 0 01-.74 1.79 2.54 2.54 0 01-1.79.74zm-9.17 1.58a2.59 2.59 0 01-1.8-.74 2.53 2.53 0 010-3.58 2.62 2.62 0 013.58 0 2.53 2.53 0 01-1.78 4.32zM59.48 75A2.54 2.54 0 0157 72.46a2.59 2.59 0 01.74-1.8 2.64 2.64 0 013.58 0 2.59 2.59 0 01.74 1.8 2.54 2.54 0 01-.74 1.78 2.51 2.51 0 01-1.84.76zm-5.69-4.13A2.53 2.53 0 0152 66.55a2.62 2.62 0 013.58 0 2.53 2.53 0 01-1.79 4.32zm13.29.64a2.51 2.51 0 01-1.79-.75 2.52 2.52 0 010-3.57 2.6 2.6 0 013.58 0 2.54 2.54 0 01-1.79 4.32zm7.59-4.12a2.53 2.53 0 01-1.79-4.32 2.62 2.62 0 013.58 0 2.58 2.58 0 01.74 1.79 2.53 2.53 0 01-2.53 2.53zM44 71.51a2.51 2.51 0 01-1.79-.75 2.54 2.54 0 01-.76-1.76 2.59 2.59 0 01.74-1.8 2.62 2.62 0 013.58 0 2.59 2.59 0 01.74 1.8 2.54 2.54 0 01-.74 1.78 2.51 2.51 0 01-1.77.73zm-9.83 7.27a2.53 2.53 0 01-1.79-4.32 2.62 2.62 0 013.58 0 2.53 2.53 0 01-1.79 4.32zm10.44-1.58a2.53 2.53 0 01-1.79-4.32 2.62 2.62 0 013.58 0 2.53 2.53 0 01-1.79 4.32zm2.85 7.91a2.53 2.53 0 01-1.79-4.32 2.62 2.62 0 013.58 0 2.53 2.53 0 01-1.79 4.32zM29.74 82.9A2.53 2.53 0 0128 78.58a2.61 2.61 0 013.58 0 2.53 2.53 0 01-1.79 4.32zm-13.92-6.65A2.53 2.53 0 0114 71.93a2.62 2.62 0 013.58 0 2.53 2.53 0 01-1.79 4.32zm4.11 6.33a2.53 2.53 0 01-1.79-4.32 2.62 2.62 0 013.58 0 2.53 2.53 0 01-1.79 4.32zm-3.79 6.01a2.53 2.53 0 01-1.79-4.32 2.62 2.62 0 013.58 0 2.53 2.53 0 01-1.79 4.32zm-6.65 2.6a2 2 0 01-1.39-3.36 2 2 0 012.78 0 2 2 0 01-1.39 3.36zm-5.38-.35A2.25 2.25 0 012.52 87a2.33 2.33 0 013.18 0 2.25 2.25 0 01-1.59 3.84zM6.64 77.2a2.53 2.53 0 01-1.79-4.32 2.62 2.62 0 013.58 0 2.53 2.53 0 01-1.79 4.32zm-.95-13.6a2.52 2.52 0 01-1.78-4.32 2.61 2.61 0 013.57 0 2.59 2.59 0 01.74 1.8 2.54 2.54 0 01-.74 1.78 2.51 2.51 0 01-1.79.74zm15.51 4.11a2.53 2.53 0 01-1.79-4.32 2.62 2.62 0 013.58 0 2.53 2.53 0 01-1.79 4.32zm-5.38-19.3A2.53 2.53 0 0114 44.09a2.61 2.61 0 013.58 0 2.54 2.54 0 01.74 1.79 2.58 2.58 0 01-.74 1.79 2.54 2.54 0 01-1.76.74zM6 39.86a2.53 2.53 0 01-1.79-4.32 2.62 2.62 0 013.58 0 2.58 2.58 0 01.74 1.79A2.53 2.53 0 016 39.86z"/><path class="cls-2" d="M8.23 43.66a2.54 2.54 0 01-1.79-.74 2.51 2.51 0 010-3.58 2.61 2.61 0 013.57 0 2.53 2.53 0 01-1.78 4.32zm-4.12 7.91a2.53 2.53 0 01-1.79-4.32 2.62 2.62 0 013.58 0 2.53 2.53 0 01-1.79 4.32zm63.6 38.92a2.53 2.53 0 01-1.79-4.32 2.62 2.62 0 013.58 0 2.53 2.53 0 01-1.79 4.32zm-20.56.95a2.52 2.52 0 01-1.79-4.32 2.61 2.61 0 013.57 0 2.53 2.53 0 01-1.78 4.32zm-14.24.95a2.53 2.53 0 01-2.54-2.53 2.54 2.54 0 01.74-1.79 2.62 2.62 0 013.58 0 2.51 2.51 0 010 3.58 2.54 2.54 0 01-1.78.74z"/><path class="cls-2" d="M32.27 87.64a2.53 2.53 0 01-1.79-4.32 2.62 2.62 0 013.58 0 2.53 2.53 0 01-1.79 4.32zm22.47-61.38A2.53 2.53 0 0153 21.94a2.62 2.62 0 013.58 0 2.53 2.53 0 01-1.79 4.32zm-42.08.63a2.54 2.54 0 01-1.79-.74 2.51 2.51 0 010-3.58 2.61 2.61 0 013.57 0 2.51 2.51 0 010 3.58 2.54 2.54 0 01-1.78.74zM7.44 34a2.53 2.53 0 01-1.79-4.32 2.6 2.6 0 013.58 0 2.54 2.54 0 01.77 1.83 2.58 2.58 0 01-.74 1.79 2.54 2.54 0 01-1.82.7zm15.31.4A2.53 2.53 0 0121 30.08a2.62 2.62 0 013.58 0 2.53 2.53 0 01-1.79 4.32zm25.98-12.88a2.51 2.51 0 01-1.79-.75 2.53 2.53 0 010-3.58 2.62 2.62 0 013.58 0 2.54 2.54 0 01-1.79 4.33zm-18.67 8.22a2.53 2.53 0 01-1.79-4.32 2.61 2.61 0 013.58 0 2.53 2.53 0 01-1.79 4.32zM50.94 13a2.53 2.53 0 01-1.79-4.32 2.62 2.62 0 013.58 0A2.53 2.53 0 0150.94 13zm7.6 1.24A2.53 2.53 0 0156 11.71a2.54 2.54 0 01.74-1.79 2.6 2.6 0 013.58 0 2.55 2.55 0 01.75 1.79 2.59 2.59 0 01-.75 1.79 2.54 2.54 0 01-1.78.74zm-7.92-9.18a2.58 2.58 0 01-1.79-.74 2.53 2.53 0 010-3.58 2.62 2.62 0 013.58 0 2.51 2.51 0 010 3.58 2.54 2.54 0 01-1.79.74zm13.61 2.22a2.54 2.54 0 01-1.79-.74 2.59 2.59 0 01-.74-1.8A2.54 2.54 0 0162.44 3 2.61 2.61 0 0166 3a2.54 2.54 0 01.74 1.78A2.59 2.59 0 0166 6.54a2.54 2.54 0 01-1.77.74zM75 13.6a2.53 2.53 0 01-1.8-4.32 2.62 2.62 0 013.58 0 2.58 2.58 0 01.74 1.79A2.53 2.53 0 0175 13.6zM76.57 26A2.54 2.54 0 0174 23.41a2.58 2.58 0 01.74-1.79 2.62 2.62 0 013.58 0 2.58 2.58 0 01.74 1.79 2.54 2.54 0 01-.74 1.79 2.51 2.51 0 01-1.75.8zM75 37a2.54 2.54 0 01-1.79-.74 2.58 2.58 0 01-.74-1.79 2.54 2.54 0 01.74-1.79 2.61 2.61 0 013.58 0 2.54 2.54 0 01.74 1.79 2.58 2.58 0 01-.74 1.79A2.54 2.54 0 0175 37zm-.64 6a2.54 2.54 0 01-1.79-.74 2.51 2.51 0 010-3.58 2.61 2.61 0 013.57 0A2.53 2.53 0 0174.36 43zM81 55.37a2.53 2.53 0 01-1.79-4.32 2.6 2.6 0 013.58 0A2.53 2.53 0 0181 55.37zm8 2.38a1.6 1.6 0 01-1.15-.48 1.64 1.64 0 01-.48-1.15 1.63 1.63 0 013.26 0 1.64 1.64 0 01-.48 1.15 1.62 1.62 0 01-1.15.48zm-2.3-26.9a2.52 2.52 0 01-1.79-4.32 2.61 2.61 0 013.57 0 2.53 2.53 0 01-1.78 4.32z"/><path class="cls-2" d="M84.48 27.21a2.53 2.53 0 01-1.79-4.32 2.62 2.62 0 013.58 0 2.53 2.53 0 01-1.79 4.32zM88 16.77a2.53 2.53 0 01-1.79-4.32 2.61 2.61 0 013.58 0A2.53 2.53 0 0188 16.77zM86.7 5.7a2.55 2.55 0 01-1.79-.7 2.51 2.51 0 010-3.58 2.61 2.61 0 013.57 0A2.54 2.54 0 0186.7 5.7zM20.69 90.56a2.53 2.53 0 01-1.79-4.32 2.62 2.62 0 013.58 0 2.53 2.53 0 01-1.79 4.32zm21.07-1.34a2.58 2.58 0 01-1.76-.74 2.52 2.52 0 010-3.57 2.6 2.6 0 013.58 0 2.5 2.5 0 010 3.57 2.54 2.54 0 01-1.82.74zm33.86 2.54a2.53 2.53 0 01-2.53-2.54 2.52 2.52 0 01.74-1.78 2.6 2.6 0 013.58 0 2.54 2.54 0 01.74 1.78 2.59 2.59 0 01-.74 1.8 2.54 2.54 0 01-1.79.74zm9.81-56.22a1.69 1.69 0 01-1.69-1.69 1.67 1.67 0 01.5-1.19 1.74 1.74 0 012.38 0 1.67 1.67 0 01.5 1.19 1.69 1.69 0 01-1.69 1.69zM74.67 67.18a1.68 1.68 0 01-1.19-2.88 1.74 1.74 0 012.38 0 1.69 1.69 0 01-1.19 2.88zM48.41 17.82a1.71 1.71 0 01-1.19-.49 1.67 1.67 0 01-.5-1.19 1.73 1.73 0 01.49-1.2 1.75 1.75 0 012.39 0 1.68 1.68 0 010 2.39 1.72 1.72 0 01-1.19.49zM30.37 35.23a1.69 1.69 0 01-1.19-2.88 1.74 1.74 0 012.39 0 1.69 1.69 0 01-1.2 2.88zM36.7 79.2a1.69 1.69 0 01-1.7-1.68 1.67 1.67 0 01.5-1.19 1.75 1.75 0 012.39 0 1.73 1.73 0 01.49 1.2 1.69 1.69 0 01-1.68 1.67zm18.35-4.74a1.67 1.67 0 01-1.19-.5 1.7 1.7 0 01-.5-1.19 1.67 1.67 0 01.5-1.19 1.75 1.75 0 012.39 0 1.69 1.69 0 01-1.2 2.88zm-6.64-14.55a1.72 1.72 0 01-1.19-.5 1.67 1.67 0 01-.5-1.19 1.73 1.73 0 01.49-1.2 1.76 1.76 0 012.39 0 1.68 1.68 0 010 2.39 1.67 1.67 0 01-1.19.5zm-28.79 9.8a1.73 1.73 0 01-1.2-.49 1.71 1.71 0 01-.49-1.22 1.73 1.73 0 01.49-1.2 1.77 1.77 0 012.39 0 1.73 1.73 0 01.49 1.2 1.71 1.71 0 01-.49 1.19 1.72 1.72 0 01-1.19.52zm14.55-8.86a1.69 1.69 0 01-1.69-1.68A1.73 1.73 0 0133 58a1.75 1.75 0 012.39 0 1.69 1.69 0 01-1.19 2.88zm28.48-16.77a1.69 1.69 0 01-1.2-.49 1.7 1.7 0 010-2.39 1.76 1.76 0 012.39 0 1.69 1.69 0 01-1.19 2.88zm-14.24-9.17a1.71 1.71 0 01-1.69-1.69 1.71 1.71 0 01.49-1.22 1.75 1.75 0 012.39 0 1.69 1.69 0 01-1.19 2.88zM25 45.67a1.67 1.67 0 01-1.19-.5 1.71 1.71 0 01-.5-1.17 1.69 1.69 0 01.49-1.19 1.75 1.75 0 012.39 0 1.69 1.69 0 01.49 1.19A1.69 1.69 0 0125 45.67zM22.15 58A1.69 1.69 0 0121 55.13a1.75 1.75 0 012.39 0 1.67 1.67 0 010 2.38 1.69 1.69 0 01-1.24.49zM8.86 56.74a1.69 1.69 0 01-1.2-2.88 1.75 1.75 0 012.39 0 1.69 1.69 0 01-1.19 2.88zm9.49-20.25a1.69 1.69 0 01-1.69-1.69 1.67 1.67 0 01.5-1.19 1.73 1.73 0 012.38 0A1.67 1.67 0 0120 34.8a1.69 1.69 0 01-1.69 1.69zM7.28 12.13a1.69 1.69 0 01-1.2-2.88 1.75 1.75 0 012.39 0 1.69 1.69 0 010 2.38 1.67 1.67 0 01-1.19.5zm12.97 12.02a1.69 1.69 0 01-1.2-2.88 1.75 1.75 0 012.39 0 1.69 1.69 0 01-1.19 2.88zm10.44-10.76A1.69 1.69 0 0129 11.7a1.67 1.67 0 01.5-1.19 1.73 1.73 0 012.38 0 1.69 1.69 0 01-1.19 2.88zm31.96-5.06a1.73 1.73 0 01-1.2-.49 1.75 1.75 0 01-.45-1.2 1.71 1.71 0 01.49-1.19 1.75 1.75 0 012.39 0 1.67 1.67 0 01.5 1.19 1.69 1.69 0 01-1.69 1.69zM61.7 27a1.67 1.67 0 01-1.19-.5 1.66 1.66 0 01-.5-1.19 1.71 1.71 0 01.49-1.19 1.75 1.75 0 012.39 0A1.69 1.69 0 0161.7 27zm20.88 27.53a1.69 1.69 0 01-1.68-1.69 1.65 1.65 0 01.49-1.19 1.75 1.75 0 012.39 0 1.69 1.69 0 01.49 1.19 1.69 1.69 0 01-1.69 1.69zm-23.1.63a1.72 1.72 0 01-1.19-.49 1.75 1.75 0 01-.49-1.2 1.71 1.71 0 01.49-1.19 1.75 1.75 0 012.39 0 1.69 1.69 0 01-1.2 2.88zm7.91 26.26a1.69 1.69 0 01-1.19-2.88 1.75 1.75 0 012.39 0 1.69 1.69 0 01-1.2 2.88zm-15.5 2.22a1.68 1.68 0 01-1.19-2.88 1.74 1.74 0 012.38 0 1.71 1.71 0 01.5 1.2 1.69 1.69 0 01-.5 1.19 1.67 1.67 0 01-1.19.49zm-23.41 4.43a1.69 1.69 0 01-1.69-1.69 1.73 1.73 0 01.49-1.2 1.69 1.69 0 012.88 1.2 1.69 1.69 0 01-1.68 1.69zm-20.25-.95A1.69 1.69 0 017 84.24a1.75 1.75 0 012.39 0 1.69 1.69 0 01-1.19 2.88zM3.16 72.56A1.71 1.71 0 012 72.07a1.74 1.74 0 01-.5-1.2 1.72 1.72 0 01.5-1.19 1.75 1.75 0 012.39 0 1.71 1.71 0 01.49 1.19 1.73 1.73 0 01-.49 1.2 1.73 1.73 0 01-1.23.49zm14.24 7.28A1.68 1.68 0 0116.21 77a1.73 1.73 0 012.38 0 1.67 1.67 0 01.5 1.19 1.71 1.71 0 01-1.69 1.69zm64.23 3.48a1.68 1.68 0 01-1.19-2.88 1.75 1.75 0 012.39 0 1.69 1.69 0 010 2.39 1.69 1.69 0 01-1.2.49zm4.75-16.14a1.68 1.68 0 01-1.19-2.88 1.74 1.74 0 012.38 0 1.68 1.68 0 010 2.39 1.71 1.71 0 01-1.19.49zM61.7 64a1.66 1.66 0 01-1.19-.5 1.67 1.67 0 01-.5-1.19 1.71 1.71 0 01.49-1.19 1.75 1.75 0 012.39 0A1.69 1.69 0 0161.7 64zm-19.62 4.45a1.67 1.67 0 01-1.19-.5 1.66 1.66 0 01-.5-1.19 1.67 1.67 0 01.5-1.19 1.75 1.75 0 012.39 0 1.71 1.71 0 01.49 1.19 1.67 1.67 0 01-.5 1.19 1.66 1.66 0 01-1.19.5zM28.48 70a1.69 1.69 0 01-1.2-2.88 1.75 1.75 0 012.39 0 1.71 1.71 0 01.49 1.19 1.73 1.73 0 01-.49 1.2 1.71 1.71 0 01-1.19.49zm8.85-46.17a1.67 1.67 0 01-1.68-1.68 1.73 1.73 0 01.49-1.2 1.69 1.69 0 012.86 1.2 1.71 1.71 0 01-.49 1.19 1.73 1.73 0 01-1.18.49z"/><path class="cls-2" d="M84.16 8a1.67 1.67 0 01-1.68-1.68A1.69 1.69 0 0183 5.14a1.74 1.74 0 012.39 0A1.69 1.69 0 0184.16 8zM72.77 41.87a1.67 1.67 0 01-1.68-1.69 1.71 1.71 0 01.49-1.18A1.75 1.75 0 0174 39a1.71 1.71 0 01.49 1.19 1.67 1.67 0 01-1.69 1.69zm-61.7 29.74a1.71 1.71 0 01-1.19-.49 1.7 1.7 0 010-2.39 1.75 1.75 0 012.39 0 1.69 1.69 0 01-1.2 2.88zm4.12-22.15A1.73 1.73 0 0114 49a1.71 1.71 0 01-.49-1.19 1.73 1.73 0 01.49-1.2 1.76 1.76 0 012.39 0 1.73 1.73 0 01.49 1.2 1.67 1.67 0 01-1.68 1.68zM6.33 46.3a1.67 1.67 0 01-1.69-1.69 1.71 1.71 0 01.49-1.19 1.75 1.75 0 012.39 0A1.72 1.72 0 018 44.61a1.74 1.74 0 01-.5 1.2 1.71 1.71 0 01-1.17.49zM2.21 62.12A1.71 1.71 0 011 61.63a1.73 1.73 0 01-.49-1.2A1.71 1.71 0 011 59.24a1.75 1.75 0 012.39 0 1.71 1.71 0 01.49 1.19 1.73 1.73 0 01-.49 1.2 1.73 1.73 0 01-1.18.49zm1.27-39.23a1.71 1.71 0 01-1.69-1.69 1.7 1.7 0 01.5-1.2 1.74 1.74 0 012.38 0 1.71 1.71 0 01.5 1.2 1.71 1.71 0 01-1.69 1.69zM11.39 27a1.69 1.69 0 01-1.69-1.69 1.67 1.67 0 01.5-1.19 1.73 1.73 0 012.38 0 1.67 1.67 0 01.5 1.19A1.69 1.69 0 0111.39 27zm7.36-15.19a1.68 1.68 0 01-1.19-2.88 1.73 1.73 0 012.38 0 1.67 1.67 0 01.5 1.19 1.69 1.69 0 01-1.69 1.69zm32.19-4.74a1.69 1.69 0 01-1.19-.5 1.67 1.67 0 01-.5-1.19 1.7 1.7 0 01.5-1.2 1.76 1.76 0 012.38 0 1.71 1.71 0 01.5 1.2 1.71 1.71 0 01-1.69 1.69zm-10.76 3.48A1.68 1.68 0 0139 7.67a1.68 1.68 0 012.88 1.19 1.67 1.67 0 01-.5 1.19 1.66 1.66 0 01-1.2.5zM3.16 82.05a1.69 1.69 0 01-1.69-1.68 1.74 1.74 0 01.5-1.2 1.76 1.76 0 012.39 0 1.7 1.7 0 010 2.39 1.73 1.73 0 01-1.2.49zm6.96-3.16a1.71 1.71 0 01-1.19-.49 1.73 1.73 0 01-.49-1.2 1.71 1.71 0 01.49-1.2 1.75 1.75 0 012.39 0 1.71 1.71 0 01.49 1.19 1.67 1.67 0 01-1.69 1.69zM6.64 64.65a1.71 1.71 0 01-1.19-.49 1.7 1.7 0 010-2.39 1.75 1.75 0 012.39 0 1.69 1.69 0 01-1.2 2.88zm8.55-2.21A1.69 1.69 0 0114 59.56a1.75 1.75 0 012.39 0 1.69 1.69 0 010 2.38 1.67 1.67 0 01-1.2.5zM2.85 51.36a1.67 1.67 0 01-1.69-1.68 1.73 1.73 0 01.49-1.2 1.75 1.75 0 012.39 0 1.7 1.7 0 010 2.39 1.72 1.72 0 01-1.19.49zm35.9-20.55a1.69 1.69 0 01-1.69-1.69 1.67 1.67 0 01.5-1.19 1.73 1.73 0 012.38 0 1.69 1.69 0 01-1.19 2.88zm-10.27-8.56a1.69 1.69 0 01-1.2-2.88 1.75 1.75 0 012.39 0 1.7 1.7 0 010 2.39 1.71 1.71 0 01-1.19.49zm5.69 5.38a1.69 1.69 0 01-1.69-1.69 1.72 1.72 0 01.52-1.19 1.75 1.75 0 012.39 0 1.69 1.69 0 01-1.19 2.88zm6.96 6.96a1.71 1.71 0 01-1.19-.49 1.67 1.67 0 01-.5-1.19 1.7 1.7 0 01.5-1.2 1.73 1.73 0 012.38 0 1.69 1.69 0 01-1.19 2.88zm-3.8 8.23a1.72 1.72 0 01-1.19-.49 1.75 1.75 0 01-.49-1.2 1.71 1.71 0 01.49-1.19 1.75 1.75 0 012.39 0 1.69 1.69 0 01-1.2 2.88zm-8.54 11.07a1.69 1.69 0 01-1.69-1.68 1.68 1.68 0 01.5-1.2A1.76 1.76 0 0130 51a1.73 1.73 0 01.49 1.2 1.69 1.69 0 01-1.69 1.68zM37 51.68A1.69 1.69 0 0135.33 50a1.67 1.67 0 01.5-1.19 1.73 1.73 0 012.38 0 1.67 1.67 0 01.5 1.19 1.66 1.66 0 01-.5 1.19 1.67 1.67 0 01-1.21.49zm-5.68-8.86a1.67 1.67 0 01-1.19-.5 1.69 1.69 0 010-2.38 1.75 1.75 0 012.39 0 1.72 1.72 0 01.48 1.19 1.69 1.69 0 01-1.69 1.69zm27.53-26.58a1.68 1.68 0 01-1.19-2.88 1.73 1.73 0 012.38 0 1.69 1.69 0 01-1.19 2.88zm-13.29 9.18a1.68 1.68 0 01-1.19-2.88 1.74 1.74 0 012.38 0 1.69 1.69 0 01-1.19 2.89zm7.28-.95a1.67 1.67 0 01-1.19-.5 1.66 1.66 0 01-.5-1.19 1.71 1.71 0 01.49-1.19 1.75 1.75 0 012.39 0A1.67 1.67 0 0154 24a1.69 1.69 0 01-1.16.47zm3.8 11.39a1.69 1.69 0 01-1.2-2.86 1.75 1.75 0 012.39 0 1.69 1.69 0 010 2.38 1.67 1.67 0 01-1.19.48zm-2.22 10.76a1.67 1.67 0 01-1.19-.5 1.67 1.67 0 010-2.38 1.73 1.73 0 012.38 0 1.66 1.66 0 01.5 1.19 1.71 1.71 0 01-1.69 1.69zm-5.69 5.69A1.67 1.67 0 0147 50.62a1.71 1.71 0 01.49-1.19 1.75 1.75 0 012.39 0 1.71 1.71 0 01.49 1.19 1.67 1.67 0 01-1.68 1.69zm-6.97 4.11a1.69 1.69 0 01-1.19-2.88 1.77 1.77 0 012.39 0 1.69 1.69 0 01-1.2 2.88zm9.81-16.13a1.69 1.69 0 01-1.19-2.88 1.75 1.75 0 012.39 0 1.69 1.69 0 01-1.2 2.88zm-8.22 0a1.69 1.69 0 01-1.2-2.88 1.75 1.75 0 012.39 0 1.69 1.69 0 01-1.19 2.88zm26.89-28.48a1.69 1.69 0 01-1.69-1.69 1.67 1.67 0 01.5-1.19 1.73 1.73 0 012.38 0 1.67 1.67 0 01.5 1.19 1.69 1.69 0 01-1.69 1.69zm7.91-6.01a1.69 1.69 0 01-1.69-1.69A1.67 1.67 0 0177 2.92a1.73 1.73 0 012.38 0 1.67 1.67 0 01.5 1.19 1.69 1.69 0 01-1.73 1.69zm4.11 15.5a1.69 1.69 0 01-1.19-2.88 1.76 1.76 0 012.39 0 1.69 1.69 0 01-1.2 2.88zm4.12-8.22a1.68 1.68 0 01-1.19-2.88 1.72 1.72 0 012.38 0 1.66 1.66 0 01.5 1.19 1.71 1.71 0 01-1.69 1.69zm-7.91.63A1.67 1.67 0 0176.78 12a1.71 1.71 0 01.49-1.19 1.75 1.75 0 012.39 0 1.67 1.67 0 01.5 1.19 1.76 1.76 0 01-.5 1.2 1.72 1.72 0 01-1.19.51zM64.23 35.23a1.66 1.66 0 01-1.19-.5 1.67 1.67 0 01-.5-1.19 1.66 1.66 0 01.5-1.19 1.73 1.73 0 012.38 0 1.66 1.66 0 01.5 1.19 1.71 1.71 0 01-1.69 1.69zm14.24-5.7a1.69 1.69 0 01-1.2-2.88 1.75 1.75 0 012.39 0 1.67 1.67 0 01.5 1.19 1.72 1.72 0 01-.5 1.19 1.67 1.67 0 01-1.19.5zm1.58 9.18A1.71 1.71 0 0178.36 37a1.7 1.7 0 01.5-1.2 1.76 1.76 0 012.38 0 1.7 1.7 0 01.5 1.2 1.71 1.71 0 01-1.69 1.69zm-7.59-5.38a1.69 1.69 0 01-1.2-2.88 1.75 1.75 0 012.39 0 1.69 1.69 0 01-1.19 2.88zM68.34 39a1.69 1.69 0 01-1.69-1.69 1.67 1.67 0 01.5-1.19 1.73 1.73 0 012.38 0 1.67 1.67 0 01.5 1.19A1.69 1.69 0 0168.34 39zM69 25.73a1.69 1.69 0 01-1.2-2.88 1.75 1.75 0 012.39 0A1.69 1.69 0 0169 25.73zm-4.14-7.59a1.69 1.69 0 01-1.69-1.69 1.67 1.67 0 01.5-1.19 1.75 1.75 0 012.39 0 1.69 1.69 0 010 2.39 1.69 1.69 0 01-1.2.49zM69 48.83a1.67 1.67 0 01-1.69-1.69 1.71 1.71 0 01.47-1.14 1.75 1.75 0 012.39 0 1.71 1.71 0 01.49 1.19A1.67 1.67 0 0169 48.83zm-1.61 9.81A1.67 1.67 0 0165.71 57a1.71 1.71 0 01.49-1.19 1.75 1.75 0 012.39 0 1.71 1.71 0 01.49 1.19 1.67 1.67 0 01-1.69 1.69zm8.86 0a1.72 1.72 0 01-1.19-.49 1.76 1.76 0 01-.5-1.2 1.67 1.67 0 01.5-1.19 1.75 1.75 0 012.39 0 1.71 1.71 0 01.49 1.24 1.67 1.67 0 01-1.69 1.69zM74.67 48.2a1.68 1.68 0 01-1.19-2.88 1.73 1.73 0 012.38 0 1.69 1.69 0 01-1.19 2.88zm7.91-2.85a1.71 1.71 0 01-1.19-.49 1.73 1.73 0 01-.49-1.2 1.66 1.66 0 01.49-1.19 1.75 1.75 0 012.39 0 1.71 1.71 0 01.49 1.19 1.67 1.67 0 01-1.69 1.69zm-2.21 17.72a1.73 1.73 0 01-1.2-.49 1.75 1.75 0 01-.49-1.2 1.71 1.71 0 01.49-1.19 1.75 1.75 0 012.39 0 1.71 1.71 0 01.49 1.19 1.73 1.73 0 01-.49 1.2 1.71 1.71 0 01-1.19.49zM73.72 77a1.68 1.68 0 01-1.19-2.88 1.73 1.73 0 012.38 0A1.69 1.69 0 0173.72 77zm6.33-4.12a1.69 1.69 0 01-1.69-1.69 1.67 1.67 0 01.5-1.19 1.73 1.73 0 012.38 0 1.69 1.69 0 01-1.19 2.88zm6.01 3.8a1.72 1.72 0 01-1.19-.5 1.67 1.67 0 01-.5-1.19 1.7 1.7 0 01.5-1.2 1.77 1.77 0 012.39 0 1.73 1.73 0 01.49 1.2 1.71 1.71 0 01-.49 1.19 1.74 1.74 0 01-1.2.5zm3.17 6.64a1.67 1.67 0 01-1.69-1.69 1.71 1.71 0 01.46-1.19 1.75 1.75 0 012.39 0 1.71 1.71 0 01.49 1.19 1.75 1.75 0 01-.49 1.2 1.72 1.72 0 01-1.16.49zm-.64 5.38A1.71 1.71 0 0186.9 87a1.66 1.66 0 01.5-1.19 1.73 1.73 0 012.38 0 1.66 1.66 0 01.5 1.19 1.69 1.69 0 01-1.69 1.69zm-13.92-2.53A1.71 1.71 0 0173 84.48a1.7 1.7 0 01.5-1.2 1.76 1.76 0 012.38 0 1.7 1.7 0 01.5 1.2 1.71 1.71 0 01-1.69 1.69zm-13.6.95a1.69 1.69 0 01-1.2-2.88 1.75 1.75 0 012.39 0 1.69 1.69 0 01.49 1.19 1.72 1.72 0 01-.49 1.19 1.67 1.67 0 01-1.19.5zm4.11-15.51A1.68 1.68 0 0164 68.73a1.74 1.74 0 012.38 0 1.69 1.69 0 01-1.19 2.88zM51.57 65.6a1.67 1.67 0 01-1.68-1.69 1.71 1.71 0 01.49-1.19 1.75 1.75 0 012.39 0 1.69 1.69 0 01-1.2 2.88zM45.88 77a1.67 1.67 0 01-1.69-1.69 1.71 1.71 0 01.49-1.19 1.75 1.75 0 012.39 0 1.67 1.67 0 01.5 1.19A1.69 1.69 0 0145.88 77zm-8.55 9.8a1.71 1.71 0 01-1.19-.49 1.73 1.73 0 01-.49-1.2 1.71 1.71 0 01.49-1.19 1.75 1.75 0 012.39 0 1.71 1.71 0 01.47 1.19 1.67 1.67 0 01-1.69 1.69zm3.8-2.22a1.71 1.71 0 01-1.19-.49 1.67 1.67 0 01-.5-1.19 1.7 1.7 0 01.5-1.2 1.74 1.74 0 012.38 0 1.7 1.7 0 01.5 1.2 1.72 1.72 0 01-.49 1.19 1.75 1.75 0 01-1.2.49zM49 88.7a1.68 1.68 0 01-1.19-2.88 1.75 1.75 0 012.39 0A1.69 1.69 0 0149 88.7zm39-63.6a1.69 1.69 0 01-1.69-1.69 1.71 1.71 0 01.49-1.19 1.75 1.75 0 012.39 0 1.67 1.67 0 01.5 1.19A1.69 1.69 0 0188 25.1zm.91 20.57a1.66 1.66 0 01-1.19-.5 1.67 1.67 0 01-.5-1.19 1.71 1.71 0 01.49-1.19 1.76 1.76 0 012.39 0 1.7 1.7 0 01.5 1.2 1.71 1.71 0 01-1.69 1.69zm-3.8 14.87a1.68 1.68 0 01-1.19-2.88 1.75 1.75 0 012.39 0 1.68 1.68 0 010 2.38 1.66 1.66 0 01-1.2.5zM23.73 38.07a1.68 1.68 0 01-1.19-2.88 1.73 1.73 0 012.38 0 1.69 1.69 0 01-1.19 2.88zm.63 42.08a1.68 1.68 0 01-1.19-2.88 1.76 1.76 0 012.39 0 1.73 1.73 0 01.49 1.2 1.69 1.69 0 01-1.69 1.68zM31 82.37a1.75 1.75 0 01-1.2-.49 1.73 1.73 0 01-.49-1.2 1.71 1.71 0 01.49-1.19 1.75 1.75 0 012.39 0 1.67 1.67 0 01.5 1.19A1.69 1.69 0 0131 82.37zm3.8-12.97a1.69 1.69 0 01-1.19-2.88 1.75 1.75 0 012.39 0 1.68 1.68 0 010 2.38 1.66 1.66 0 01-1.2.5zM19 44.08a1.67 1.67 0 01-1.7-1.68 1.73 1.73 0 01.49-1.2 1.77 1.77 0 012.39 0 1.73 1.73 0 01.49 1.2 1.71 1.71 0 01-.49 1.19 1.73 1.73 0 01-1.18.49zm8.21 18.67a1.69 1.69 0 01-1.69-1.68 1.73 1.73 0 01.49-1.2 1.75 1.75 0 012.39 0 1.69 1.69 0 01-1.19 2.88zM10.44 41.87a1.69 1.69 0 01-1.69-1.69 1.67 1.67 0 01.5-1.18 1.73 1.73 0 012.38 0 1.67 1.67 0 01.5 1.19 1.69 1.69 0 01-1.69 1.69zm1.27-7.59a1.7 1.7 0 01-1.2-2.89 1.76 1.76 0 012.39 0 1.74 1.74 0 01.5 1.2 1.72 1.72 0 01-.5 1.19 1.67 1.67 0 01-1.19.5zm-9.18 7.91a1.7 1.7 0 01-1.19-.5 1.67 1.67 0 01-.5-1.19 1.66 1.66 0 01.5-1.19 1.74 1.74 0 012.38 0 1.7 1.7 0 01.5 1.2 1.67 1.67 0 01-.5 1.19 1.7 1.7 0 01-1.19.49zm2.22-13.61a1.69 1.69 0 01-1.69-1.69 1.71 1.71 0 01.49-1.19 1.75 1.75 0 012.39 0 1.71 1.71 0 01.49 1.19 1.69 1.69 0 01-1.68 1.69zm6.32-10.76a1.71 1.71 0 01-1.19-.49 1.7 1.7 0 010-2.39 1.75 1.75 0 012.39 0 1.69 1.69 0 01-1.2 2.88zm12.34-1.58a1.69 1.69 0 01-1.19-2.88 1.75 1.75 0 012.39 0 1.69 1.69 0 010 2.39 1.69 1.69 0 01-1.2.49zm11.08 1.58a1.69 1.69 0 01-1.2-2.88 1.75 1.75 0 012.39 0 1.69 1.69 0 01.5 1.19 1.74 1.74 0 01-.5 1.2 1.71 1.71 0 01-1.19.49zm6.01.64a1.7 1.7 0 01-1.19-.5 1.67 1.67 0 01-.5-1.19 1.73 1.73 0 01.49-1.2 1.76 1.76 0 012.39 0 1.71 1.71 0 01.5 1.2 1.67 1.67 0 01-.5 1.19 1.7 1.7 0 01-1.19.5zm12.34-6.65a1.69 1.69 0 01-1.69-1.69 1.72 1.72 0 01.49-1.19 1.75 1.75 0 012.39 0 1.69 1.69 0 01.5 1.19 1.69 1.69 0 01-1.69 1.69zm3.8-7.91a1.73 1.73 0 01-1.2-.49 1.75 1.75 0 01-.44-1.2A1.71 1.71 0 0155.44 1a1.75 1.75 0 012.39 0 1.69 1.69 0 01-1.19 2.9zM31.32 6.12a1.67 1.67 0 01-1.19-.5 1.71 1.71 0 01-.49-1.19 1.69 1.69 0 01.49-1.19 1.75 1.75 0 012.39 0A1.75 1.75 0 0133 4.43a1.67 1.67 0 01-.5 1.19 1.66 1.66 0 01-1.18.5zm-6.64 2.21A1.69 1.69 0 0123 6.64a1.67 1.67 0 01.5-1.19 1.73 1.73 0 012.38 0 1.67 1.67 0 01.5 1.19 1.7 1.7 0 01-.5 1.2 1.72 1.72 0 01-1.2.49zM14.24 4.85A1.73 1.73 0 0113 4.36 1.7 1.7 0 0113 2a1.75 1.75 0 012.39 0 1.73 1.73 0 01.5 1.19 1.74 1.74 0 01-.5 1.2 1.71 1.71 0 01-1.15.46zM3.16 6.12A1.67 1.67 0 012 5.62a1.67 1.67 0 010-2.38 1.76 1.76 0 012.39 0 1.7 1.7 0 010 2.39 1.7 1.7 0 01-1.23.49zM1.58 16.56a1.67 1.67 0 01-1.19-.5 1.67 1.67 0 010-2.38 1.75 1.75 0 012.39 0 1.71 1.71 0 01.49 1.19 1.67 1.67 0 01-.5 1.19 1.66 1.66 0 01-1.19.5zM7 91.86a1.69 1.69 0 01-1.69-1.68A1.73 1.73 0 015.76 89a1.75 1.75 0 012.39 0 1.68 1.68 0 010 2.39 1.72 1.72 0 01-1.15.47zM42.71 90a1.69 1.69 0 01-1.19-2.88 1.76 1.76 0 012.39 0 1.73 1.73 0 01.49 1.2A1.69 1.69 0 0142.71 90zm7.6 3.44a1.69 1.69 0 01-1.2-2.88 1.76 1.76 0 012.39 0 1.69 1.69 0 01-1.19 2.88zm9.17-1.58A1.69 1.69 0 0158.29 89a1.75 1.75 0 012.39 0 1.69 1.69 0 01-1.2 2.88zm8.23 0A1.69 1.69 0 0166 90.18a1.73 1.73 0 01.49-1.2 1.76 1.76 0 012.39 0 1.69 1.69 0 01-1.19 2.88zm11.39 1.9a1.67 1.67 0 01-1.19-.5 1.66 1.66 0 01-.5-1.19 1.67 1.67 0 01.5-1.19 1.73 1.73 0 012.38 0 1.67 1.67 0 01.5 1.19 1.69 1.69 0 01-1.69 1.69zm10.13 0A1.69 1.69 0 0188 90.88a1.75 1.75 0 012.39 0 1.71 1.71 0 01.49 1.19 1.69 1.69 0 01-1.68 1.69zm0-21.51A1.69 1.69 0 0188 69.37a1.75 1.75 0 012.39 0 1.69 1.69 0 01.49 1.19 1.72 1.72 0 01-.49 1.19 1.69 1.69 0 01-1.16.5zm-2.53-21.2a1.69 1.69 0 01-1.2-2.88 1.74 1.74 0 012.39 0 1.69 1.69 0 01.49 1.19 1.69 1.69 0 01-1.68 1.69zm2.53-33.86A1.69 1.69 0 0188 14.31a1.75 1.75 0 012.39 0 1.71 1.71 0 01.49 1.19 1.69 1.69 0 01-1.68 1.69zM18.67 4.18A2 2 0 0117.28.82a2 2 0 012.78 0 2 2 0 010 2.78 2 2 0 01-1.39.58z"/><path class="cls-2" d="M76.25 95.24a2.53 2.53 0 01-2.53-2.54 2.54 2.54 0 01.74-1.78 2.61 2.61 0 013.58 0 2.55 2.55 0 010 3.59 2.54 2.54 0 01-1.79.73zM65.5 93.65a2.53 2.53 0 01-1.79-4.32 2.61 2.61 0 013.57 0 2.53 2.53 0 01-1.78 4.32zm-29.43-.52a1.71 1.71 0 01-1.69-1.69 1.66 1.66 0 01.5-1.19 1.73 1.73 0 012.38 0 1.66 1.66 0 01.5 1.19 1.71 1.71 0 01-1.69 1.69zm-13.29.31a1.68 1.68 0 01-1.19-2.88 1.73 1.73 0 012.38 0 1.69 1.69 0 01-1.19 2.88zM2.21 74.14A1.71 1.71 0 011 73.65a1.7 1.7 0 010-2.39 1.76 1.76 0 012.39 0 1.7 1.7 0 010 2.39 1.73 1.73 0 01-1.18.49zm51.9-44.29a1.69 1.69 0 01-1.2-2.85 1.75 1.75 0 012.39 0 1.69 1.69 0 01-1.19 2.88zm10.44.84a2.54 2.54 0 01-1.79-.69 2.51 2.51 0 010-3.58 2.61 2.61 0 013.57 0 2.51 2.51 0 010 3.58 2.54 2.54 0 01-1.78.69zM43.66 46.51a2.53 2.53 0 01-1.79-4.32 2.62 2.62 0 013.58 0 2.53 2.53 0 01-1.79 4.32zm4.12 1.97a2 2 0 01-1.4-3.36 2.05 2.05 0 012.79 0 2 2 0 01-1.39 3.36zm-4.12-17.72a2 2 0 01-1.39-3.36 2 2 0 012.78 0 2 2 0 01-1.39 3.36zm-1.9-6.96a2 2 0 01-1.39-3.36 2 2 0 012.79 0 2 2 0 01-1.4 3.36zM36.7 46.62a1.67 1.67 0 01-1.19-.5 1.72 1.72 0 01-.5-1.19 1.67 1.67 0 01.5-1.19 1.68 1.68 0 012.88 1.19 1.67 1.67 0 01-.5 1.19 1.66 1.66 0 01-1.19.5zm-10.44-6.33a1.68 1.68 0 01-1.19-2.88 1.73 1.73 0 012.38 0 1.67 1.67 0 010 2.38 1.66 1.66 0 01-1.19.5zm1.58-4.11a1.72 1.72 0 01-1.19-.5 1.67 1.67 0 01-.5-1.19 1.7 1.7 0 01.5-1.2 1.74 1.74 0 012.38 0 1.7 1.7 0 01.5 1.2 1.67 1.67 0 01-.5 1.19 1.7 1.7 0 01-1.19.5zm-.63-4.43a1.66 1.66 0 01-1.19-.5 1.67 1.67 0 01-.5-1.19 1.75 1.75 0 01.49-1.2 1.77 1.77 0 012.39 0 1.71 1.71 0 01.5 1.2 1.71 1.71 0 01-1.69 1.69zm7.91.63a1.71 1.71 0 01-1.69-1.69 1.66 1.66 0 01.5-1.19 1.73 1.73 0 012.38 0 1.67 1.67 0 010 2.38 1.66 1.66 0 01-1.19.5zm28.16 19.3a1.66 1.66 0 01-1.19-.5 1.67 1.67 0 010-2.38 1.73 1.73 0 012.38 0A1.67 1.67 0 0165 50a1.71 1.71 0 01-1.69 1.69zm-.63 6.96a1.75 1.75 0 01-1.2-.49A1.73 1.73 0 0161 57a1.71 1.71 0 01.49-1.19 1.75 1.75 0 012.39 0 1.67 1.67 0 01.5 1.19 1.69 1.69 0 01-1.69 1.69zm-1.58-19.93a1.69 1.69 0 01-1.2-2.88 1.75 1.75 0 012.39 0 1.69 1.69 0 01.49 1.17 1.69 1.69 0 01-1.68 1.69zm5.06 3.48a1.71 1.71 0 01-1.69-1.69 1.66 1.66 0 01.5-1.19 1.72 1.72 0 012.38 0 1.66 1.66 0 01.5 1.19 1.71 1.71 0 01-1.69 1.69zm5.06 19.3a1.71 1.71 0 01-1.69-1.69 1.66 1.66 0 01.5-1.19 1.73 1.73 0 012.38 0 1.66 1.66 0 01.5 1.19 1.67 1.67 0 01-.5 1.19 1.66 1.66 0 01-1.19.5zm1.58-6.33a1.67 1.67 0 01-1.19-.5 1.69 1.69 0 010-2.38 1.75 1.75 0 012.39 0 1.69 1.69 0 01-1.2 2.88zm6.33-5.38a1.67 1.67 0 01-1.19-.5 1.66 1.66 0 01-.5-1.19 1.67 1.67 0 01.5-1.19 1.73 1.73 0 012.38 0 1.67 1.67 0 01.5 1.19 1.71 1.71 0 01-1.69 1.69zm-1.27-4.11a1.67 1.67 0 01-1.19-.5 1.71 1.71 0 01-.49-1.17 1.69 1.69 0 01.49-1.19 1.75 1.75 0 012.39 0 1.69 1.69 0 01.49 1.19 1.69 1.69 0 01-1.69 1.69zm8.87-5.07a1.69 1.69 0 01-1.2-2.88 1.76 1.76 0 012.39 0 1.69 1.69 0 01-1.19 2.88zm-3.49 8.23a1.71 1.71 0 01-1.21-.49 1.73 1.73 0 01-.49-1.2A1.66 1.66 0 0182 46a1.75 1.75 0 012.39 0 1.71 1.71 0 01.49 1.19 1.69 1.69 0 01-1.69 1.69zm2.54 3.52a1.43 1.43 0 01-1-.41 1.45 1.45 0 01-.41-1 1.41 1.41 0 01.41-1 1.45 1.45 0 012 0 1.41 1.41 0 01.41 1 1.45 1.45 0 01-.41 1 1.41 1.41 0 01-1 .41zM70.88 16.24a1.67 1.67 0 01-1.69-1.69 1.71 1.71 0 01.49-1.19 1.76 1.76 0 012.39 0 1.71 1.71 0 01.49 1.19 1.67 1.67 0 01-1.68 1.69z"/><path class="cls-2" d="M73.4 17.19a1.67 1.67 0 01-1.68-1.69 1.71 1.71 0 01.49-1.19 1.75 1.75 0 012.39 0 1.71 1.71 0 01.49 1.19 1.67 1.67 0 01-1.69 1.69zm9.5-1.58a1.66 1.66 0 01-1.19-.5 1.67 1.67 0 01-.5-1.19 1.71 1.71 0 01.49-1.19 1.75 1.75 0 012.39 0 1.69 1.69 0 01-1.19 2.88zm4.43 5.06A1.67 1.67 0 0185.64 19a1.67 1.67 0 01.5-1.19 1.73 1.73 0 012.38 0A1.67 1.67 0 0189 19a1.69 1.69 0 01-1.69 1.69zM74 8.65a1.66 1.66 0 01-1.19-.5A1.67 1.67 0 0172.35 7a1.71 1.71 0 01.49-1.19 1.75 1.75 0 012.39 0A1.69 1.69 0 0174 8.65zM36.39 6.43a1.67 1.67 0 01-1.69-1.68 1.71 1.71 0 01.49-1.2 1.75 1.75 0 012.39 0 1.7 1.7 0 010 2.39 1.71 1.71 0 01-1.19.49zM36.07 14a1.71 1.71 0 01-1.69-1.69 1.66 1.66 0 01.5-1.19 1.73 1.73 0 012.38 0A1.69 1.69 0 0136.07 14z"/><path class="cls-2" d="M38.6 15a1.71 1.71 0 01-1.69-1.69 1.7 1.7 0 01.5-1.2 1.76 1.76 0 012.38 0 1.71 1.71 0 01.5 1.2 1.67 1.67 0 01-.5 1.19 1.7 1.7 0 01-1.19.5zm6.33-2.56a1.69 1.69 0 01-1.69-1.68 1.73 1.73 0 01.49-1.2 1.75 1.75 0 012.39 0 1.69 1.69 0 01-1.19 2.88zm-11.08 9.5a1.69 1.69 0 01-1.19-2.88 1.75 1.75 0 012.39 0 1.69 1.69 0 01.49 1.19 1.69 1.69 0 01-1.69 1.69zM57 20.67a1.71 1.71 0 01-1.19-.49 1.74 1.74 0 01-.5-1.2 1.72 1.72 0 01.5-1.19 1.75 1.75 0 012.39 0 1.71 1.71 0 01.44 1.21A1.67 1.67 0 0157 20.67z"/><path class="cls-2" d="M60.12 20a1.69 1.69 0 01-1.2-2.88 1.75 1.75 0 012.39 0 1.69 1.69 0 010 2.38 1.67 1.67 0 01-1.19.5zM18 18.14a1.67 1.67 0 01-1.68-1.69 1.71 1.71 0 01.49-1.19 1.75 1.75 0 012.39 0 1.71 1.71 0 01.49 1.19A1.67 1.67 0 0118 18.14zm6.68-6.33a1.68 1.68 0 01-1.19-2.88 1.73 1.73 0 012.38 0 1.67 1.67 0 01.5 1.19 1.69 1.69 0 01-1.69 1.69z"/><path class="cls-2" d="M26.58 13.71a1.73 1.73 0 01-1.2-.49 1.75 1.75 0 01-.49-1.2 1.71 1.71 0 01.49-1.19 1.75 1.75 0 012.39 0 1.71 1.71 0 01.49 1.17 1.67 1.67 0 01-1.68 1.69zm-9.81-6.33a1.69 1.69 0 01-1.2-2.88 1.75 1.75 0 012.43 0 1.69 1.69 0 01-1.19 2.88zM4.11 14a1.71 1.71 0 01-1.69-1.69 1.66 1.66 0 01.5-1.19 1.76 1.76 0 012.39 0 1.75 1.75 0 01.49 1.2A1.69 1.69 0 014.11 14zm2.53 2.87a1.72 1.72 0 01-1.19-.49A1.71 1.71 0 015 15.19 1.73 1.73 0 015.45 14a1.76 1.76 0 012.39 0 1.73 1.73 0 01.49 1.2 1.71 1.71 0 01-.49 1.19 1.73 1.73 0 01-1.2.48zm0 4.13a1.67 1.67 0 01-1.19-.5 1.69 1.69 0 010-2.38 1.75 1.75 0 012.39 0 1.69 1.69 0 010 2.38 1.68 1.68 0 01-1.2.5zm0 4.42a1.69 1.69 0 01-1.19-2.88 1.75 1.75 0 012.39 0 1.69 1.69 0 01.49 1.19 1.69 1.69 0 01-1.69 1.69z"/><path class="cls-2" d="M7.91 25.42a1.71 1.71 0 01-1.69-1.69 1.66 1.66 0 01.5-1.19 1.73 1.73 0 012.38 0 1.66 1.66 0 01.5 1.19 1.71 1.71 0 01-1.69 1.69z"/><path class="cls-2" d="M8.54 23.52a1.68 1.68 0 01-1.19-2.88 1.75 1.75 0 012.39 0 1.71 1.71 0 01.49 1.19 1.67 1.67 0 01-.5 1.17 1.66 1.66 0 01-1.19.52zm5.06-1.58a1.69 1.69 0 01-1.19-2.88 1.75 1.75 0 012.39 0 1.69 1.69 0 01-1.2 2.88z"/><path class="cls-2" d="M16.45 23.83A1.68 1.68 0 0115.26 21a1.76 1.76 0 012.39 0 1.69 1.69 0 01-1.2 2.88zm-.31 5.7a1.73 1.73 0 01-1.2-.49 1.75 1.75 0 01-.49-1.2 1.71 1.71 0 01.49-1.19 1.75 1.75 0 012.39 0 1.71 1.71 0 01.49 1.19 1.67 1.67 0 01-1.68 1.69zm-.64 3.8a1.69 1.69 0 01-1.19-.5 1.67 1.67 0 010-2.38 1.68 1.68 0 012.88 1.19 1.69 1.69 0 01-1.69 1.69z"/><path class="cls-2" d="M18.35 32.69a1.71 1.71 0 01-1.19-.49 1.67 1.67 0 01-.5-1.19 1.7 1.7 0 01.5-1.2 1.73 1.73 0 012.38 0A1.7 1.7 0 0120 31a1.67 1.67 0 01-.5 1.19 1.71 1.71 0 01-1.15.5zm6.96-6.64a1.69 1.69 0 01-1.69-1.69 1.67 1.67 0 01.5-1.19 1.75 1.75 0 012.39 0 1.72 1.72 0 01.49 1.19 1.69 1.69 0 01-1.69 1.69zM37 20a1.71 1.71 0 01-1.69-1.69 1.66 1.66 0 01.5-1.19 1.73 1.73 0 012.38 0A1.69 1.69 0 0137 20zM20.57 40.92a1.67 1.67 0 01-1.69-1.69 1.71 1.71 0 01.49-1.23 1.75 1.75 0 012.39 0 1.71 1.71 0 01.49 1.19 1.67 1.67 0 01-1.68 1.69zm.94 8.86a1.69 1.69 0 01-1.19-2.88 1.75 1.75 0 012.39 0 1.71 1.71 0 01.49 1.19 1.69 1.69 0 01-1.69 1.69zm-4.43 1.9A1.69 1.69 0 0115.4 50a1.71 1.71 0 01.49-1.19 1.75 1.75 0 012.39 0 1.71 1.71 0 01.49 1.19 1.69 1.69 0 01-1.69 1.69zm5.07 1.58a1.67 1.67 0 01-1.69-1.69 1.71 1.71 0 01.54-1.19 1.75 1.75 0 012.39 0 1.67 1.67 0 01.5 1.19 1.69 1.69 0 01-1.69 1.69z"/><path class="cls-2" d="M24.36 49.47a1.72 1.72 0 01-1.19-.5 1.68 1.68 0 010-2.39 1.76 1.76 0 012.39 0 1.73 1.73 0 01.49 1.2 1.67 1.67 0 01-.5 1.19 1.7 1.7 0 01-1.19.5zm4.75-1.38a2.53 2.53 0 01-1.79-4.32 2.62 2.62 0 013.58 0 2.53 2.53 0 01-1.79 4.32zm-19.3 1.27A2.53 2.53 0 018 45a2.62 2.62 0 013.58 0 2.53 2.53 0 01-1.79 4.32zm3.48 8.54a2.53 2.53 0 01-1.79-4.32 2.62 2.62 0 013.58 0 2.53 2.53 0 01-1.79 4.32zm17.08 1.9a2.53 2.53 0 01-2.53-2.53 2.54 2.54 0 01.74-1.79 2.62 2.62 0 013.58 0 2.53 2.53 0 01-1.79 4.32zm5.38-3.8A2.53 2.53 0 0134 51.68a2.62 2.62 0 013.58 0A2.53 2.53 0 0135.75 56zm6.65 9.49A2.53 2.53 0 0139.87 63a2.58 2.58 0 01.74-1.79 2.62 2.62 0 013.58 0 2.53 2.53 0 01-1.79 4.32zm-3.8 9.18a2.53 2.53 0 01-1.79-4.32 2.62 2.62 0 013.58 0 2.53 2.53 0 01-1.79 4.32zm-25.31 7.67a2 2 0 01-2-2A2 2 0 0111.9 79a2 2 0 012.78 0 2 2 0 010 2.79 2 2 0 01-1.39.55zM22.46 74a2.53 2.53 0 01-1.79-4.32 2.6 2.6 0 013.58 0 2.54 2.54 0 01.75 1.83 2.58 2.58 0 01-.74 1.79 2.54 2.54 0 01-1.8.7zm-6.01-8.19a2.53 2.53 0 01-1.79-4.32 2.62 2.62 0 013.58 0 2.53 2.53 0 01-1.79 4.32zm5.7-3.48A2.53 2.53 0 0120.36 58a2.61 2.61 0 013.58 0 2.53 2.53 0 01-1.79 4.32z"/><path class="cls-2" d="M27.84 57.58a2.53 2.53 0 01-2.53-2.53 2.58 2.58 0 01.74-1.79 2.62 2.62 0 013.58 0 2.58 2.58 0 01.74 1.79 2.53 2.53 0 01-2.53 2.53zm1.66 18.83a2.51 2.51 0 01-1.79-.75 2.53 2.53 0 010-3.58 2.62 2.62 0 013.58 0 2.54 2.54 0 01-1.79 4.33zm36.63-.68A1.71 1.71 0 0164.44 74a1.66 1.66 0 01.5-1.19 1.73 1.73 0 012.38 0 1.66 1.66 0 01.5 1.19 1.71 1.71 0 01-1.69 1.69zm7.59-3.8a1.68 1.68 0 01-1.19-2.88 1.73 1.73 0 012.38 0 1.69 1.69 0 01-1.19 2.88zM62 67.5a1.71 1.71 0 01-1.18-.5 1.74 1.74 0 01-.5-1.2 1.67 1.67 0 01.5-1.19 1.75 1.75 0 012.39 0 1.71 1.71 0 01.49 1.19 1.75 1.75 0 01-.49 1.2 1.73 1.73 0 01-1.21.5zm-8.21-5.7a1.73 1.73 0 01-1.2-.49 1.71 1.71 0 01-.49-1.19 1.73 1.73 0 01.49-1.2 1.75 1.75 0 012.39 0 1.68 1.68 0 010 2.39 1.71 1.71 0 01-1.19.49zm-2.53-4.11a1.69 1.69 0 01-1.2-2.88 1.75 1.75 0 012.39 0A1.67 1.67 0 0153 56a1.69 1.69 0 01-1.69 1.69zm-3.48-15.5a1.69 1.69 0 01-1.2-2.88 1.74 1.74 0 012.39 0 1.69 1.69 0 01-1.19 2.88zm7.91-2.85a1.73 1.73 0 01-1.2-.49 1.75 1.75 0 01-.49-1.2 1.71 1.71 0 01.49-1.19 1.75 1.75 0 012.39 0 1.69 1.69 0 01-1.19 2.88zm-40.82 2.85a1.71 1.71 0 01-1.69-1.69 1.7 1.7 0 01.5-1.2 1.76 1.76 0 012.38 0 1.7 1.7 0 01.5 1.2 1.71 1.71 0 01-1.69 1.69zM25 51.68a1.71 1.71 0 01-1.19-.49 1.75 1.75 0 01-.49-1.2 1.71 1.71 0 01.49-1.19 1.75 1.75 0 012.39 0 1.71 1.71 0 01.48 1.2A1.67 1.67 0 0125 51.68zm17.4 28.79a1.67 1.67 0 01-1.69-1.68 1.71 1.71 0 01.49-1.2 1.75 1.75 0 012.39 0 1.69 1.69 0 01-1.19 2.88zm4.43.63a1.69 1.69 0 01-1.69-1.68 1.73 1.73 0 01.49-1.2 1.76 1.76 0 012.39 0 1.69 1.69 0 01-1.19 2.88zm4.11-2.53a1.69 1.69 0 01-1.69-1.68 1.68 1.68 0 01.5-1.2 1.73 1.73 0 012.38 0 1.69 1.69 0 01-1.19 2.88zm6.64.32a1.69 1.69 0 01-1.68-1.69 1.71 1.71 0 01.49-1.2 1.75 1.75 0 012.39 0 1.71 1.71 0 01.49 1.19 1.69 1.69 0 01-1.69 1.69zm1.59 4.43A1.69 1.69 0 0158 80.44a1.75 1.75 0 012.39 0 1.67 1.67 0 010 2.38 1.67 1.67 0 01-1.22.5zm6.96 1.58a1.69 1.69 0 01-1.69-1.69 1.67 1.67 0 01.5-1.19 1.73 1.73 0 012.38 0 1.67 1.67 0 01.5 1.19 1.69 1.69 0 01-1.69 1.69zm-12.02 4.43a1.69 1.69 0 01-1.69-1.69 1.71 1.71 0 01.49-1.19 1.75 1.75 0 012.39 0 1.71 1.71 0 01.49 1.19 1.67 1.67 0 01-1.68 1.69zm23.72-13.6a1.67 1.67 0 01-1.19-.5 1.71 1.71 0 01-.49-1.23 1.73 1.73 0 01.49-1.2 1.77 1.77 0 012.39 0 1.73 1.73 0 01.49 1.2 1.69 1.69 0 01-1.69 1.69zm2.54-8.23a1.69 1.69 0 01-1.2-2.88 1.75 1.75 0 012.39 0 1.71 1.71 0 01.49 1.19 1.69 1.69 0 01-1.68 1.69zm-10.45-.63a1.67 1.67 0 01-1.19-.5 1.71 1.71 0 01-.49-1.19 1.69 1.69 0 01.49-1.18 1.74 1.74 0 012.39 0 1.69 1.69 0 01-1.2 2.88zm12.66 11.07a1.69 1.69 0 01-1.19-2.88 1.75 1.75 0 012.39 0 1.71 1.71 0 01.49 1.19 1.69 1.69 0 01-1.69 1.69zM85.75 71a1.69 1.69 0 01-1.2-2.88 1.75 1.75 0 012.39 0A1.69 1.69 0 0185.75 71zm-1.9 20.86a1.73 1.73 0 01-1.2-.49 1.71 1.71 0 01-.49-1.19 1.73 1.73 0 01.49-1.2A1.75 1.75 0 0185 89a1.69 1.69 0 01-1.19 2.88zM3.8 55.48a1.69 1.69 0 01-1.2-2.88 1.76 1.76 0 012.39 0 1.75 1.75 0 01.49 1.2 1.69 1.69 0 01-1.68 1.68z"/><path class="cls-2" d="M5.38 57.69a1.69 1.69 0 01-1.2-2.88 1.75 1.75 0 012.39 0 1.67 1.67 0 01.5 1.19 1.7 1.7 0 01-.5 1.2 1.72 1.72 0 01-1.19.49zM6 69.08a1.69 1.69 0 01-1.69-1.69 1.67 1.67 0 01.5-1.19 1.73 1.73 0 012.38 0 1.67 1.67 0 01.5 1.19A1.69 1.69 0 016 69.08zm4.12-8.86a1.71 1.71 0 01-1.19-.49 1.7 1.7 0 010-2.39 1.75 1.75 0 012.39 0 1.69 1.69 0 01-1.2 2.88zM12 64.33a1.68 1.68 0 01-1.19-2.88 1.76 1.76 0 012.39 0 1.73 1.73 0 01.49 1.2 1.71 1.71 0 01-.49 1.19 1.73 1.73 0 01-1.2.49zM1.9 87.12a1.69 1.69 0 01-1.2-2.88 1.75 1.75 0 012.39 0 1.67 1.67 0 010 2.38 1.69 1.69 0 01-1.19.5zm5.38-5.38a1.69 1.69 0 01-1.2-2.88 1.75 1.75 0 012.39 0 1.69 1.69 0 010 2.38 1.67 1.67 0 01-1.19.5zM79.1 2.64a1.67 1.67 0 01-1.19-.5 1.66 1.66 0 01-.5-1.14 1.7 1.7 0 01.5-1.2 1.76 1.76 0 012.38 0 1.7 1.7 0 01.5 1.2 1.67 1.67 0 01-.5 1.19 1.7 1.7 0 01-1.19.45zm12.97 6.85a2.58 2.58 0 01-1.79-.74 2.53 2.53 0 010-3.58 2.62 2.62 0 013.58 0 2.51 2.51 0 010 3.58 2.54 2.54 0 01-1.79.74zm-.63 25.31a2.53 2.53 0 01-1.79-4.32 2.62 2.62 0 013.58 0 2.53 2.53 0 01-1.79 4.32zm-.95 18.04a2.53 2.53 0 01-1.79-4.32 2.62 2.62 0 013.58 0 2.53 2.53 0 01-1.79 4.32zM92.07 62a2.58 2.58 0 01-1.79-.74 2.54 2.54 0 01-.74-1.79 2.58 2.58 0 01.74-1.79 2.62 2.62 0 013.58 0 2.55 2.55 0 01.75 1.79 2.51 2.51 0 01-.75 1.79 2.54 2.54 0 01-1.79.74zm0 8.24a2.53 2.53 0 01-1.79-4.32 2.61 2.61 0 013.58 0 2.51 2.51 0 010 3.58 2.54 2.54 0 01-1.79.74zm-1.9 10.83a2 2 0 01-1.39-3.36 2.05 2.05 0 012.79 0 2 2 0 01-1.4 3.36zm2.54-64.51a1.69 1.69 0 01-1.2-2.88 1.75 1.75 0 012.39 0 1.69 1.69 0 01-1.19 2.88zm-1.58 10.76a1.69 1.69 0 01-1.69-1.69 1.73 1.73 0 01.49-1.2 1.75 1.75 0 012.39 0 1.7 1.7 0 010 2.39 1.69 1.69 0 01-1.19.5zm-.32 18.98a1.69 1.69 0 01-1.2-2.88 1.75 1.75 0 012.39 0 1.66 1.66 0 01.49 1.19 1.69 1.69 0 01-.49 1.2 1.71 1.71 0 01-1.19.49zm.63 30.7a1.68 1.68 0 01-1.19-2.88 1.73 1.73 0 012.38 0 1.67 1.67 0 01.5 1.19A1.67 1.67 0 0191.44 77z"/><path class="cls-2" d="M90.49 25.31A2.53 2.53 0 0188.7 21a2.62 2.62 0 013.58 0 2.53 2.53 0 01-1.79 4.32zm0-15.19A2.53 2.53 0 0188.7 5.8a2.62 2.62 0 013.58 0 2.53 2.53 0 01-1.79 4.32zm-1.26 73.2a1.67 1.67 0 01-1.69-1.69 1.71 1.71 0 01.46-1.19 1.75 1.75 0 012.39 0 1.71 1.71 0 01.49 1.19 1.75 1.75 0 01-.49 1.2 1.72 1.72 0 01-1.16.49zm.63-24.23a.85.85 0 01-.62-.26.87.87 0 01-.26-.61.88.88 0 011.5-.62.89.89 0 01.25.62.9.9 0 01-.25.62.89.89 0 01-.62.25zm-.63 13.16A1.69 1.69 0 0188 69.37a1.75 1.75 0 012.39 0 1.69 1.69 0 01.49 1.19 1.72 1.72 0 01-.49 1.19 1.69 1.69 0 01-1.16.5zm0-55.06A1.69 1.69 0 0188 14.31a1.75 1.75 0 012.39 0 1.71 1.71 0 01.49 1.19 1.69 1.69 0 01-1.68 1.69z"/><path class="cls-2" d="M91.13 8a1.74 1.74 0 01-1.2-.5 1.71 1.71 0 01-.49-1.19 1.73 1.73 0 01.49-1.2 1.77 1.77 0 012.39 0 1.73 1.73 0 01.49 1.2 1.71 1.71 0 01-.49 1.19 1.73 1.73 0 01-1.19.5zm0 29.44a1.67 1.67 0 01-1.69-1.69 1.71 1.71 0 01.49-1.19 1.75 1.75 0 012.39 0 1.71 1.71 0 01.49 1.19 1.75 1.75 0 01-.49 1.2 1.72 1.72 0 01-1.19.49z"/><path class="cls-2" d="M90.18 39.34A1.69 1.69 0 0189 36.46a1.75 1.75 0 012.39 0 1.71 1.71 0 01.49 1.19 1.69 1.69 0 01-1.68 1.69zm-3.8 4.74a1.71 1.71 0 01-1.19-.49 1.67 1.67 0 01-.5-1.19 1.7 1.7 0 01.5-1.2 1.74 1.74 0 012.38 0 1.7 1.7 0 01.5 1.2 1.67 1.67 0 01-.5 1.19 1.71 1.71 0 01-1.19.49zm5.69-1.26a1.69 1.69 0 01-1.19-2.88 1.75 1.75 0 012.39 0 1.69 1.69 0 01-1.2 2.88zM1 42.82a1.69 1.69 0 01-1.19-.49 1.71 1.71 0 01-.5-1.2 1.67 1.67 0 01.5-1.19 1.73 1.73 0 012.38 0 1.67 1.67 0 010 2.38 1.67 1.67 0 01-1.19.5zm37.29-6.01a1.69 1.69 0 01-1.2-2.88 1.75 1.75 0 012.39 0 1.69 1.69 0 01-1.19 2.88zm6.95-.63a1.69 1.69 0 01-1.68-1.69 1.75 1.75 0 01.49-1.2 1.77 1.77 0 012.39 0 1.7 1.7 0 010 2.39 1.7 1.7 0 01-1.2.5zm-13.92-4.12a1.69 1.69 0 01-1.68-1.69 1.71 1.71 0 01.49-1.19 1.75 1.75 0 012.39 0 1.72 1.72 0 01.48 1.19 1.69 1.69 0 01-1.69 1.69zm11.39 28.2a1.38 1.38 0 01-1-.42 1.4 1.4 0 010-2 1.44 1.44 0 012 0 1.41 1.41 0 01-1 2.4zM20.57 87.47a1.42 1.42 0 01-1.41-1.41 1.41 1.41 0 01.41-1 1.44 1.44 0 012 0 1.41 1.41 0 01.41 1 1.43 1.43 0 01-.41 1 1.41 1.41 0 01-1 .41zm42.08-38.95a1.7 1.7 0 01-1.2-2.89 1.77 1.77 0 012.39 0 1.7 1.7 0 01.5 1.2 1.67 1.67 0 01-.5 1.19 1.72 1.72 0 01-1.19.5zm-.95 5.69a1.67 1.67 0 01-1.19-.5 1.66 1.66 0 01-.5-1.19 1.71 1.71 0 01.49-1.19 1.75 1.75 0 012.39 0 1.69 1.69 0 01-1.19 2.88zm4.11.31a1.71 1.71 0 01-1.19-.52 1.67 1.67 0 01-.5-1.19 1.7 1.7 0 01.5-1.2 1.76 1.76 0 012.39 0 1.73 1.73 0 01.49 1.2 1.69 1.69 0 01-1.69 1.68zM13.6 92.53a1.4 1.4 0 01-1.4-1.41 1.41 1.41 0 01.41-1 1.45 1.45 0 012 0 1.41 1.41 0 01.41 1 1.4 1.4 0 01-1.41 1.41zm6.65-85.11a1.41 1.41 0 01-1-2.4 1.45 1.45 0 012 0 1.4 1.4 0 010 2 1.38 1.38 0 01-1 .4zm5.38-3.48a1.45 1.45 0 01-1-.41 1.43 1.43 0 01-.41-1 1.41 1.41 0 01.41-1 1.44 1.44 0 012 0 1.41 1.41 0 01.41 1 1.43 1.43 0 01-.41 1 1.41 1.41 0 01-1 .41z"/><path class="cls-2" d="M20.88 6.15a1.41 1.41 0 01-1-2.4 1.46 1.46 0 012 0 1.45 1.45 0 01.41 1 1.38 1.38 0 01-.42 1 1.41 1.41 0 01-.99.4zm1.27 78.15a1.4 1.4 0 01-1.41-1.4 1.43 1.43 0 01.41-1 1.46 1.46 0 012 0 1.43 1.43 0 01.41 1 1.4 1.4 0 01-1.4 1.4zm50.62-58.88a1.67 1.67 0 01-1.19-.5 1.71 1.71 0 01-.49-1.19 1.69 1.69 0 01.49-1.19 1.76 1.76 0 012.39 0 1.73 1.73 0 01.49 1.2 1.69 1.69 0 01-1.69 1.69zm-8.54-2.22a1.69 1.69 0 01-1.69-1.69 1.67 1.67 0 01.5-1.19 1.73 1.73 0 012.38 0 1.67 1.67 0 01.5 1.19 1.69 1.69 0 01-1.69 1.69zm6.33 20.88a1.73 1.73 0 01-1.2-.49 1.71 1.71 0 01-.49-1.19 1.73 1.73 0 01.49-1.2 1.76 1.76 0 012.39 0 1.7 1.7 0 01.5 1.2 1.67 1.67 0 01-.5 1.19 1.71 1.71 0 01-1.19.49zm10.76 16.14a1.69 1.69 0 01-1.2-2.88 1.75 1.75 0 012.39 0 1.7 1.7 0 010 2.39 1.71 1.71 0 01-1.19.49zm-4.43-6.64a1.69 1.69 0 01-1.2-2.88 1.74 1.74 0 012.39 0 1.69 1.69 0 01.49 1.19 1.69 1.69 0 01-1.68 1.69zM20.25 27.31a1.69 1.69 0 01-1.69-1.68 1.73 1.73 0 01.49-1.2 1.76 1.76 0 012.39 0 1.7 1.7 0 01.5 1.2 1.69 1.69 0 01-1.69 1.68zm28.25 43.5a1.71 1.71 0 01-1.69-1.69 1.72 1.72 0 01.49-1.19 1.75 1.75 0 012.39 0 1.69 1.69 0 01-1.19 2.88zm-2.5-3.5a1.69 1.69 0 01-1.69-1.69 1.72 1.72 0 01.49-1.19 1.75 1.75 0 012.39 0 1.67 1.67 0 01.5 1.19A1.69 1.69 0 0146 67.31zm6.5 1a1.69 1.69 0 01-1.69-1.69 1.67 1.67 0 01.5-1.19 1.73 1.73 0 012.38 0 1.67 1.67 0 01.5 1.19 1.69 1.69 0 01-1.69 1.69zm-7-65a1.69 1.69 0 01-1.69-1.69 1.67 1.67 0 01.5-1.19 1.73 1.73 0 012.38 0 1.68 1.68 0 010 2.39 1.71 1.71 0 01-1.19.49zm8 18a1.69 1.69 0 01-1.69-1.69 1.67 1.67 0 01.5-1.19 1.73 1.73 0 012.38 0 1.67 1.67 0 01.5 1.19 1.69 1.69 0 01-1.69 1.69zm-5.5-7a1.69 1.69 0 01-1.69-1.69 1.67 1.67 0 01.5-1.19 1.73 1.73 0 012.38 0 1.67 1.67 0 01.5 1.19A1.69 1.69 0 0148 14.31zm13 16.5a1.69 1.69 0 01-1.69-1.69 1.67 1.67 0 01.5-1.19 1.73 1.73 0 012.38 0 1.67 1.67 0 01.5 1.19A1.69 1.69 0 0161 30.81zm8 5a1.69 1.69 0 01-1.69-1.69 1.67 1.67 0 01.5-1.19 1.73 1.73 0 012.38 0 1.67 1.67 0 01.5 1.19A1.69 1.69 0 0169 35.81zm6-5.5a1.69 1.69 0 01-1.69-1.69 1.67 1.67 0 01.5-1.19 1.73 1.73 0 012.38 0 1.67 1.67 0 01.5 1.19A1.69 1.69 0 0175 30.31zm-49.5 37.5a1.69 1.69 0 01-1.69-1.69 1.71 1.71 0 01.49-1.19 1.75 1.75 0 012.39 0 1.67 1.67 0 01.5 1.19 1.69 1.69 0 01-1.69 1.69zm-9.5 2.5a1.69 1.69 0 01-1.69-1.69 1.67 1.67 0 01.5-1.19 1.73 1.73 0 012.38 0 1.67 1.67 0 01.5 1.19A1.69 1.69 0 0116 70.31zm-4 5a1.69 1.69 0 01-1.69-1.69 1.67 1.67 0 01.5-1.19 1.73 1.73 0 012.38 0 1.67 1.67 0 01.5 1.19A1.69 1.69 0 0112 75.31zm73.5-19a1.69 1.69 0 01-1.69-1.69 1.67 1.67 0 01.5-1.19 1.73 1.73 0 012.38 0 1.67 1.67 0 01.5 1.19 1.69 1.69 0 01-1.69 1.69zm6-.81a.85.85 0 01-.62-.26.9.9 0 01-.26-.62.87.87 0 01.26-.61.91.91 0 011.24 0 .93.93 0 01.26.62.9.9 0 01-.26.62.85.85 0 01-.62.25zm-91.12 0a.88.88 0 01-.63-.26.89.89 0 01-.25-.62.88.88 0 01.25-.62A.9.9 0 011 54a.83.83 0 01.26.61.85.85 0 01-.26.62.87.87 0 01-.62.27zM10 7.5a.85.85 0 01-.62-.26.88.88 0 01-.26-.62.88.88 0 011.5-.62.86.86 0 01.25.61.89.89 0 01-.25.62.87.87 0 01-.62.27zm1.5 7a.87.87 0 11.88-.88.86.86 0 01-.27.62.85.85 0 01-.61.26zm-2-4a.85.85 0 01-.62-.26.88.88 0 01-.26-.62.88.88 0 011.5-.62.9.9 0 01.25.62.89.89 0 01-.25.62.87.87 0 01-.62.26zm-.5 3a.85.85 0 01-.62-.26.9.9 0 01-.26-.62.88.88 0 011.5-.62.9.9 0 01.25.62.89.89 0 01-.25.62.87.87 0 01-.62.26zm18 4a.85.85 0 01-.62-.26.86.86 0 010-1.23.91.91 0 011.24 0 .92.92 0 01.25.62.9.9 0 01-.25.62.87.87 0 01-.62.25zM80 22a.85.85 0 01-.62-.26.9.9 0 01-.26-.62.87.87 0 01.26-.61.9.9 0 011.24 0 .87.87 0 01.26.61.9.9 0 01-.26.62.85.85 0 01-.62.26zm.5 3.5a.85.85 0 01-.62-.26.9.9 0 01-.26-.62.88.88 0 011.76 0 .9.9 0 01-.26.62.85.85 0 01-.62.26zm1 9a.85.85 0 01-.62-.26.88.88 0 010-1.23.88.88 0 011.5.61.9.9 0 01-.26.62.85.85 0 01-.62.26zM7 4.31a1.69 1.69 0 01-1.69-1.69 1.71 1.71 0 01.49-1.19 1.75 1.75 0 012.39 0A1.69 1.69 0 017 4.31zm-4-.9a1.73 1.73 0 01-1.2-.49 1.73 1.73 0 01-.49-1.2 1.67 1.67 0 01.5-1.19 1.73 1.73 0 012.38 0 1.68 1.68 0 010 2.39A1.71 1.71 0 013 3.41zm49.5 82.9a1.69 1.69 0 01-1.69-1.69 1.67 1.67 0 01.5-1.19 1.73 1.73 0 012.38 0 1.67 1.67 0 01.5 1.19 1.69 1.69 0 01-1.69 1.69zm-5-11a1.69 1.69 0 01-1.69-1.69 1.67 1.67 0 01.5-1.19 1.73 1.73 0 012.38 0 1.69 1.69 0 01-1.19 2.88zm13.5-71a1.69 1.69 0 01-1.69-1.69 1.67 1.67 0 01.5-1.19 1.73 1.73 0 012.38 0 1.67 1.67 0 01.5 1.19A1.69 1.69 0 0161 4.31zm1.5 6.5a1.68 1.68 0 01-1.19-2.88 1.73 1.73 0 012.38 0 1.67 1.67 0 01.5 1.19 1.69 1.69 0 01-1.69 1.69zm0 4a1.68 1.68 0 01-1.19-2.88 1.73 1.73 0 012.38 0 1.67 1.67 0 01.5 1.19 1.69 1.69 0 01-1.69 1.69zM69 31.56a1.69 1.69 0 01-1.69-1.69 1.67 1.67 0 01.5-1.19 1.73 1.73 0 012.38 0 1.67 1.67 0 01.5 1.19A1.69 1.69 0 0169 31.56zm-40.75-7.25a1.69 1.69 0 01-1.69-1.69 1.72 1.72 0 01.49-1.19 1.75 1.75 0 012.39 0 1.67 1.67 0 01.5 1.19 1.7 1.7 0 01-.5 1.2 1.72 1.72 0 01-1.19.49z"/><path class="cls-2" d="M30.75 23.31a1.69 1.69 0 01-1.69-1.69 1.67 1.67 0 01.5-1.19 1.73 1.73 0 012.38 0 1.69 1.69 0 01-1.19 2.88zm2.5-14.75a1.69 1.69 0 01-1.69-1.69 1.71 1.71 0 01.49-1.19 1.75 1.75 0 012.39 0 1.67 1.67 0 01.5 1.19 1.69 1.69 0 01-1.69 1.69zM22 46.81a1.69 1.69 0 01-1.69-1.69 1.71 1.71 0 01.49-1.19 1.75 1.75 0 012.39 0 1.67 1.67 0 01.5 1.19A1.69 1.69 0 0122 46.81z"/><path class="cls-2" d="M22 43.81a1.69 1.69 0 01-1.69-1.69 1.72 1.72 0 01.49-1.19 1.75 1.75 0 012.39 0A1.69 1.69 0 0122 43.81zm-4 3.5a1.75 1.75 0 01-1.2-.49 1.73 1.73 0 01-.49-1.2 1.71 1.71 0 01.49-1.19 1.75 1.75 0 012.39 0 1.67 1.67 0 01.5 1.19A1.69 1.69 0 0118 47.31zm11.5 19.5a1.69 1.69 0 01-1.69-1.69 1.67 1.67 0 01.5-1.19 1.73 1.73 0 012.38 0 1.69 1.69 0 01-1.19 2.88z"/><path class="cls-2" d="M32.25 64.56a1.69 1.69 0 01-1.69-1.69 1.67 1.67 0 01.5-1.19 1.73 1.73 0 012.38 0 1.67 1.67 0 01.5 1.19 1.69 1.69 0 01-1.69 1.69z"/><path class="cls-2" d="M32.5 66.81a1.69 1.69 0 01-1.69-1.69 1.71 1.71 0 01.49-1.19 1.75 1.75 0 012.39 0 1.69 1.69 0 01-1.19 2.88zm-27.75 13a1.69 1.69 0 01-1.69-1.69 1.67 1.67 0 01.5-1.19 1.73 1.73 0 012.38 0 1.69 1.69 0 01-1.19 2.88z"/><path class="cls-2" d="M7.5 79.06a1.69 1.69 0 01-1.2-2.88 1.75 1.75 0 012.39 0 1.67 1.67 0 01.5 1.19 1.69 1.69 0 01-1.69 1.69zM6 42.81a1.69 1.69 0 01-1.2-2.88 1.75 1.75 0 012.39 0 1.67 1.67 0 01.5 1.19A1.69 1.69 0 016 42.81z"/><path class="cls-2" d="M5 44.31a1.69 1.69 0 01-1.2-2.88 1.75 1.75 0 012.39 0 1.67 1.67 0 01.5 1.19A1.69 1.69 0 015 44.31zm55.75 17.5a1.69 1.69 0 01-1.69-1.69 1.67 1.67 0 01.5-1.19 1.73 1.73 0 012.38 0 1.67 1.67 0 01.5 1.19 1.69 1.69 0 01-1.69 1.69z"/><path class="cls-2" d="M58.75 59.81a1.67 1.67 0 01-1.19-.5 1.66 1.66 0 01-.5-1.19 1.67 1.67 0 01.5-1.19 1.73 1.73 0 012.38 0 1.67 1.67 0 01.5 1.19 1.69 1.69 0 01-1.69 1.69z"/><path class="cls-2" d="M58.25 62.31a1.68 1.68 0 01-1.19-2.88 1.73 1.73 0 012.38 0 1.69 1.69 0 01-1.19 2.88zm11.5 15.5a1.69 1.69 0 01-1.69-1.69 1.67 1.67 0 01.5-1.19 1.73 1.73 0 012.38 0 1.67 1.67 0 01.5 1.19 1.69 1.69 0 01-1.69 1.69z"/><path class="cls-2" d="M70.25 80.06a1.68 1.68 0 01-1.19-2.88 1.73 1.73 0 012.38 0 1.67 1.67 0 01.5 1.19 1.69 1.69 0 01-1.69 1.69z"/><path class="cls-2" d="M72.25 78.56a1.69 1.69 0 01-1.69-1.69 1.67 1.67 0 01.5-1.19 1.73 1.73 0 012.38 0 1.67 1.67 0 01.5 1.19 1.69 1.69 0 01-1.69 1.69zm9.25 7.5a1.69 1.69 0 01-1.69-1.69 1.67 1.67 0 01.5-1.19 1.73 1.73 0 012.38 0 1.67 1.67 0 01.5 1.19 1.69 1.69 0 01-1.69 1.69zm-18 3.25a1.69 1.69 0 01-1.69-1.69 1.67 1.67 0 01.5-1.19 1.73 1.73 0 012.38 0 1.67 1.67 0 01.5 1.19 1.69 1.69 0 01-1.69 1.69zm-3.75-19.25a1.69 1.69 0 01-1.69-1.69 1.67 1.67 0 01.5-1.19 1.73 1.73 0 012.38 0 1.67 1.67 0 01.5 1.19 1.69 1.69 0 01-1.69 1.69zM82.5 30.81a1.69 1.69 0 01-1.69-1.69 1.67 1.67 0 01.5-1.19 1.73 1.73 0 012.38 0 1.67 1.67 0 01.5 1.19 1.69 1.69 0 01-1.69 1.69zm5-2.5a1.68 1.68 0 01-1.19-2.88 1.73 1.73 0 012.38 0 1.67 1.67 0 01.5 1.19 1.69 1.69 0 01-1.69 1.69zm-79.45.34a1.69 1.69 0 01-1.19-2.88 1.75 1.75 0 012.39 0A1.69 1.69 0 019.74 27a1.69 1.69 0 01-1.69 1.69z"/><path class="cls-2" d="M9.3 28.9a1.67 1.67 0 01-1.19-.5 1.72 1.72 0 01-.5-1.19 1.7 1.7 0 01.5-1.21 1.75 1.75 0 012.39 0 1.69 1.69 0 01.5 1.21 1.69 1.69 0 01-1.7 1.69zm7.5-14.5a1.67 1.67 0 01-1.19-.5 1.69 1.69 0 010-2.38 1.75 1.75 0 012.39 0 1.69 1.69 0 01-1.2 2.88zm68 62a1.69 1.69 0 01-1.19-2.88 1.75 1.75 0 012.39 0 1.69 1.69 0 01.49 1.19 1.69 1.69 0 01-1.69 1.69zm-.75 14.75a1.69 1.69 0 01-1.19-2.88 1.74 1.74 0 012.39 0 1.69 1.69 0 01.49 1.19 1.69 1.69 0 01-1.69 1.69zm-26.25.5a1.69 1.69 0 01-1.19-2.88 1.75 1.75 0 012.39 0 1.69 1.69 0 01.49 1.23 1.69 1.69 0 01-1.69 1.69zM54.6 9a1.68 1.68 0 01-1.19-2.88 1.73 1.73 0 012.38 0A1.69 1.69 0 0154.6 9zm-.75 84a1.68 1.68 0 01-1.19-2.88 1.73 1.73 0 012.38 0 1.67 1.67 0 01.5 1.19A1.69 1.69 0 0153.85 93zM37.5 66.16a2.54 2.54 0 01-2.5-2.54 2.58 2.58 0 01.74-1.79 2.62 2.62 0 013.58 0 2.58 2.58 0 01.68 1.79 2.54 2.54 0 01-2.53 2.54zm5.75-12.75a2.54 2.54 0 01-1.79-4.33 2.62 2.62 0 013.58 0 2.58 2.58 0 01.74 1.79 2.54 2.54 0 01-.78 1.79 2.57 2.57 0 01-1.75.75zm31.5-32.51A2.53 2.53 0 0173 16.58a2.62 2.62 0 013.58 0 2.53 2.53 0 01-1.79 4.32zM.94 9.49a2.58 2.58 0 01-1.79-.74 2.56 2.56 0 010-3.58 2.62 2.62 0 013.58 0 2.51 2.51 0 010 3.58 2.54 2.54 0 01-1.79.74zM.31 34.8a2.53 2.53 0 01-2.53-2.53 2.56 2.56 0 01.74-1.79 2.62 2.62 0 013.58 0 2.56 2.56 0 01.74 1.79 2.54 2.54 0 01-.74 1.79 2.54 2.54 0 01-1.79.74zm-.95 18.04a2.56 2.56 0 01-1.79-.74 2.54 2.54 0 01-.74-1.79 2.54 2.54 0 01.74-1.79 2.62 2.62 0 013.58 0 2.54 2.54 0 01.74 1.79 2.54 2.54 0 01-.74 1.79 2.54 2.54 0 01-1.79.74zM.94 62a2.58 2.58 0 01-1.79-.74 2.53 2.53 0 01-.73-1.79 2.57 2.57 0 01.73-1.79 2.62 2.62 0 013.58 0 2.55 2.55 0 01.75 1.79 2.51 2.51 0 01-.75 1.79A2.54 2.54 0 01.94 62zm0 8.24a2.56 2.56 0 01-1.79-.74 2.56 2.56 0 010-3.58 2.61 2.61 0 013.58 0 2.51 2.51 0 010 3.58 2.54 2.54 0 01-1.79.74zM-1 81.07a2 2 0 01-1.39-.58 2 2 0 01-.57-1.39 2 2 0 01.57-1.39 2.05 2.05 0 012.79 0A2 2 0 011 79.1a2 2 0 01-.57 1.39 2 2 0 01-1.43.58zm2.58-64.51a1.69 1.69 0 01-1.2-2.88 1.75 1.75 0 012.39 0 1.67 1.67 0 010 2.38 1.67 1.67 0 01-1.19.5zM0 27.32a1.7 1.7 0 01-1.2-.5 1.71 1.71 0 01-.49-1.19 1.73 1.73 0 01.49-1.2 1.75 1.75 0 012.39 0 1.73 1.73 0 01.49 1.2 1.72 1.72 0 01-.49 1.19 1.67 1.67 0 01-1.19.5zM-.32 46.3a1.71 1.71 0 01-1.19-.49 1.7 1.7 0 01-.5-1.2 1.71 1.71 0 01.49-1.19 1.76 1.76 0 012.4 0 1.7 1.7 0 01.48 1.19 1.72 1.72 0 01-.48 1.2 1.75 1.75 0 01-1.2.49zM.31 77a1.72 1.72 0 01-1.19-.5 1.7 1.7 0 01-.5-1.2 1.69 1.69 0 01.5-1.19 1.73 1.73 0 012.38 0A1.67 1.67 0 012 75.3a1.73 1.73 0 01-.49 1.2 1.73 1.73 0 01-1.2.5z"/><path class="cls-2" d="M-.64 25.31a2.56 2.56 0 01-1.79-.74 2.54 2.54 0 01-.74-1.79A2.56 2.56 0 01-2.43 21a2.62 2.62 0 013.58 0 2.54 2.54 0 01.74 1.79 2.54 2.54 0 01-.74 1.79 2.54 2.54 0 01-1.79.73zm0-15.19a2.56 2.56 0 01-1.79-.74 2.54 2.54 0 01-.74-1.79 2.56 2.56 0 01.74-1.79 2.62 2.62 0 013.58 0 2.54 2.54 0 01.74 1.79 2.54 2.54 0 01-.74 1.79 2.54 2.54 0 01-1.79.74z"/><path class="cls-2" d="M0 8a1.74 1.74 0 01-1.2-.5 1.71 1.71 0 01-.49-1.19 1.73 1.73 0 01.49-1.2 1.77 1.77 0 012.39 0 1.73 1.73 0 01.49 1.2 1.71 1.71 0 01-.49 1.19A1.72 1.72 0 010 8zm0 29.44A1.73 1.73 0 01-1.2 37a1.73 1.73 0 01-.49-1.2 1.71 1.71 0 01.49-1.19 1.75 1.75 0 012.39 0 1.71 1.71 0 01.49 1.19 1.75 1.75 0 01-.49 1.2 1.71 1.71 0 01-1.19.44z"/><path class="cls-2" d="M-.95 39.34a1.7 1.7 0 01-1.2-.5 1.69 1.69 0 01-.49-1.19 1.71 1.71 0 01.49-1.19 1.75 1.75 0 012.39 0 1.71 1.71 0 01.49 1.19 1.69 1.69 0 01-.49 1.19 1.69 1.69 0 01-1.19.5zm1.89 3.48a1.69 1.69 0 01-1.19-.5 1.69 1.69 0 010-2.38 1.75 1.75 0 012.39 0 1.69 1.69 0 010 2.38 1.7 1.7 0 01-1.2.5zM.38 55.5a.88.88 0 01-.63-.26.9.9 0 01-.26-.62.87.87 0 01.26-.62A.91.91 0 011 54a.93.93 0 01.26.62.9.9 0 01-.26.62.85.85 0 01-.62.26zM9.49.07A2 2 0 018.1-.5a2 2 0 01-.58-1.4 2 2 0 01.58-1.39 2 2 0 012.78 0 2 2 0 01.58 1.39 2 2 0 01-.58 1.4 2 2 0 01-1.39.57zm37.66.25a2.53 2.53 0 01-1.79-.74 2.51 2.51 0 01-.75-1.79A2.51 2.51 0 0145.36-4a2.61 2.61 0 013.57 0 2.54 2.54 0 01.74 1.79 2.54 2.54 0 01-.74 1.79 2.54 2.54 0 01-1.78.74zm-14.24.95a2.59 2.59 0 01-1.8-.74 2.56 2.56 0 01-.74-1.79A2.54 2.54 0 0131.11-3a2.62 2.62 0 013.58 0 2.51 2.51 0 01.75 1.79 2.51 2.51 0 01-.75 1.74 2.54 2.54 0 01-1.78.74zM75.62.64a2.56 2.56 0 01-1.79-.74 2.59 2.59 0 01-.74-1.8 2.52 2.52 0 01.74-1.78 2.6 2.6 0 013.58 0 2.54 2.54 0 01.74 1.78 2.59 2.59 0 01-.74 1.8 2.54 2.54 0 01-1.79.74z"/><path class="cls-2" d="M7 .74A1.71 1.71 0 015.77.25a1.69 1.69 0 01-.5-1.19 1.73 1.73 0 01.49-1.2 1.75 1.75 0 012.39 0 1.7 1.7 0 01.5 1.2 1.69 1.69 0 01-.5 1.19A1.72 1.72 0 017 .74zm43.31 1.58a1.73 1.73 0 01-1.2-.49 1.72 1.72 0 01-.49-1.19 1.73 1.73 0 01.49-1.2 1.76 1.76 0 012.39 0 1.7 1.7 0 01.5 1.2 1.69 1.69 0 01-.5 1.19 1.71 1.71 0 01-1.19.49zM59.48.74a1.72 1.72 0 01-1.19-.49 1.73 1.73 0 01-.49-1.2 1.72 1.72 0 01.49-1.19 1.75 1.75 0 012.39 0 1.72 1.72 0 01.49 1.19 1.73 1.73 0 01-.49 1.2 1.73 1.73 0 01-1.2.49zm8.23 0a1.71 1.71 0 01-1.19-.49A1.69 1.69 0 0166-.94a1.73 1.73 0 01.49-1.2 1.76 1.76 0 012.39 0 1.7 1.7 0 01.5 1.2A1.69 1.69 0 0168.9.25a1.71 1.71 0 01-1.19.49zm11.39 1.9a1.67 1.67 0 01-1.19-.5 1.66 1.66 0 01-.5-1.14 1.67 1.67 0 01.5-1.19 1.73 1.73 0 012.38 0 1.67 1.67 0 01.5 1.19 1.69 1.69 0 01-1.69 1.64zm10.13 0A1.69 1.69 0 0187.54 1 1.71 1.71 0 0188-.24a1.75 1.75 0 012.39 0A1.71 1.71 0 0190.91 1a1.69 1.69 0 01-1.68 1.69z"/><path class="cls-2" d="M76.25 4.12a2.58 2.58 0 01-1.79-.74 2.57 2.57 0 01-.74-1.8 2.54 2.54 0 01.74-1.78A2.61 2.61 0 0178-.21a2.58 2.58 0 01.74 1.79 2.59 2.59 0 01-.74 1.8 2.54 2.54 0 01-1.75.74zM65.5 2.53a2.54 2.54 0 01-1.79-.74A2.54 2.54 0 0163 0a2.56 2.56 0 01.74-1.79 2.61 2.61 0 013.57 0A2.53 2.53 0 0168 0a2.51 2.51 0 01-.75 1.79 2.54 2.54 0 01-1.75.74zM36.07 2a1.67 1.67 0 01-1.19-.5 1.67 1.67 0 01-.5-1.19 1.66 1.66 0 01.5-1.19 1.73 1.73 0 012.38 0 1.66 1.66 0 01.5 1.19 1.67 1.67 0 01-.5 1.19 1.67 1.67 0 01-1.19.5zm-13.29.32a1.71 1.71 0 01-1.19-.49 1.69 1.69 0 01-.5-1.19 1.7 1.7 0 01.5-1.2 1.73 1.73 0 012.41 0 1.7 1.7 0 01.5 1.2 1.69 1.69 0 01-.5 1.19 1.71 1.71 0 01-1.22.49zM83.85.74a1.73 1.73 0 01-1.2-.49 1.71 1.71 0 01-.49-1.19 1.73 1.73 0 01.49-1.2 1.75 1.75 0 012.39 0 1.73 1.73 0 01.49 1.2A1.72 1.72 0 0185 .25a1.72 1.72 0 01-1.15.49zm-70.25.67a1.43 1.43 0 01-1-.41 1.43 1.43 0 01-.41-1 1.41 1.41 0 01.41-1 1.45 1.45 0 012 0 1.41 1.41 0 01.4 1 1.43 1.43 0 01-.41 1 1.43 1.43 0 01-.99.41z"/><path class="cls-2" d="M84.05 0a1.69 1.69 0 01-1.19-.5 1.71 1.71 0 01-.49-1.19 1.71 1.71 0 01.49-1.19 1.74 1.74 0 012.39 0 1.69 1.69 0 01.49 1.19 1.71 1.71 0 01-.49 1.19 1.7 1.7 0 01-1.2.5zM57.8.53A1.69 1.69 0 0156.61 0a1.71 1.71 0 01-.49-1.19 1.71 1.71 0 01.49-1.19 1.75 1.75 0 012.39 0 1.69 1.69 0 01.49 1.19A1.71 1.71 0 0159 0a1.7 1.7 0 01-1.2.53zm-3.95 1.34a1.71 1.71 0 01-1.19-.49 1.7 1.7 0 01-.5-1.2 1.69 1.69 0 01.5-1.18A1.73 1.73 0 0155-1a1.67 1.67 0 01.5 1.19 1.7 1.7 0 01-.5 1.2 1.71 1.71 0 01-1.15.48z"/></pattern><style>.cls-2{fill:#1d1d1b}.cls-3{font-size:60px;font-family:MyriadPro-Regular,Myriad Pro;fill:url(#Point_mezzo-tinto)}</style></defs><g id="Calque_2" data-name="Calque 2"><g id="Calque_7" data-name="Calque 7"><text class="cls-3" transform="translate(30.45 51.04)">U</text><text transform="matrix(.98 0 -.17 .98 51.84 51.04)" font-size="60.93" font-family="MyriadPro-Regular,Myriad Pro" fill="url(#Point_mezzo-tinto)">X</text><text class="cls-3" transform="matrix(-1 0 0 1 45 50.22)">R</text></g></g></svg>